<?xml version="1.0" standalone="no"?>
 <!DOCTYPE svg PUBLIC "-//W3C//DTD SVG 1.1//EN" 
 "http://www.w3.org/Graphics/SVG/1.1/DTD/svg11.dtd"> 
<svg
  xmlns:svg="http://www.w3.org/2000/svg"
  xmlns="http://www.w3.org/2000/svg"
  xmlns:xlink="http://www.w3.org/1999/xlink"
  version="1.1"
  width="363.7026mm" height="150.1394mm" viewBox="0.0000 0.0000 363.7026 150.1394">
<title>SVG Image created as keys-Edge_Cuts.svg date 2024/07/20 01:07:07 </title>
  <desc>Image generated by PCBNEW </desc>
<g style="fill:#000000; fill-opacity:1.0000;stroke:#000000; stroke-opacity:1.0000;
stroke-linecap:round; stroke-linejoin:round;"
 transform="translate(0 0) scale(1 1)">
</g>
<g style="fill:none; 
stroke:#D0D2CD; stroke-width:0.1000; stroke-opacity:1; 
stroke-linecap:round; stroke-linejoin:round;">
<path d="M72.7500 6.8000 A1.6500 1.6500 0.0 0 0 74.4000 5.1500" />
<path d="M22.7500 6.8000 A1.6500 1.6500 0.0 0 0 24.4000 5.1500" />
<path d="M237.4000 5.1500 A2.7500 2.7500 0.0 0 0 231.9000 5.1500" />
<path d="M231.9000 141.3250 A2.7500 2.7500 0.0 0 0 237.4000 141.3250" />
<path d="M81.5500 6.8000
L230.2500 6.8000
" />
<path d="M0.0750 137.6750
L0.0750 8.8000
" />
<path d="M294.9000 5.1500 A1.6500 1.6500 0.0 0 0 296.5500 6.8000" />
<path d="M24.4000 141.3250 A2.7500 2.7500 0.0 0 0 29.9000 141.3250" />
<path d="M29.9000 5.1500 A1.6500 1.6500 0.0 0 0 31.5500 6.8000" />
<path d="M2.0750 6.8000 A2.0000 2.0000 0.0 0 0 0.0750 8.8000" />
<path d="M239.0500 139.6750
L287.7552 139.6750
" />
<path d="M359.9250 139.6750 A2.0000 2.0000 0.0 0 0 361.9250 137.6750" />
<path d="M237.4000 5.1500 A1.6500 1.6500 0.0 0 0 239.0500 6.8000" />
<path d="M359.9250 6.8000
L296.5500 6.8000
" />
<path d="M24.4000 141.3250 A1.6500 1.6500 0.0 0 0 22.7500 139.6750" />
<path d="M31.5500 6.8000
L72.7500 6.8000
" />
<path d="M2.0750 6.8000
L22.7500 6.8000
" />
<path d="M31.5500 139.6750
L72.7500 139.6750
" />
<path d="M294.9000 5.1500 A2.7500 2.7500 0.0 0 0 289.4000 5.1500" />
<path d="M81.5500 139.6750 A1.6500 1.6500 0.0 0 0 79.9000 141.3250" />
<path d="M29.9000 5.1500 A2.7500 2.7500 0.0 0 0 24.4000 5.1500" />
<path d="M287.7500 6.8000 A1.6500 1.6500 0.0 0 0 289.4000 5.1500" />
<path d="M2.0750 139.6750
L22.7500 139.6750
" />
<path d="M239.0500 6.8000
L287.7500 6.8000
" />
<path d="M289.4000 141.3250 A2.7500 2.7500 0.0 0 0 294.9000 141.3250" />
<path d="M361.9250 8.8000 A2.0000 2.0000 0.0 0 0 359.9250 6.8000" />
<path d="M79.9000 5.1500 A2.7500 2.7500 0.0 0 0 74.4000 5.1500" />
<path d="M74.4000 141.3250 A2.7500 2.7500 0.0 0 0 79.9000 141.3250" />
<path d="M81.5500 139.6750
L230.2500 139.6750
" />
<path d="M361.9250 8.8000
L361.9250 137.6750
" />
<path d="M289.4000 141.3250 A1.6448 1.6448 0.0 0 0 287.7552 139.6750" />
<path d="M296.5500 139.6750
L359.9250 139.6750
" />
<path d="M296.5500 139.6750 A1.6500 1.6500 0.0 0 0 294.9000 141.3250" />
<path d="M0.0750 137.6750 A2.0000 2.0000 0.0 0 0 2.0750 139.6750" />
<path d="M231.9000 141.3250 A1.6500 1.6500 0.0 0 0 230.2500 139.6750" />
<path d="M230.2500 6.8000 A1.6500 1.6500 0.0 0 0 231.9000 5.1500" />
<path d="M31.5500 139.6750 A1.6500 1.6500 0.0 0 0 29.9000 141.3250" />
<path d="M79.9000 5.1500 A1.6500 1.6500 0.0 0 0 81.5500 6.8000" />
<path d="M239.0500 139.6750 A1.6500 1.6500 0.0 0 0 237.4000 141.3250" />
<path d="M74.4000 141.3250 A1.6500 1.6500 0.0 0 0 72.7500 139.6750" />
<path d="M15.2268 121.2464
L15.2268 118.9000
" />
<path d="M15.5768 121.5964
L18.3232 121.5964
" />
<path d="M18.3232 118.5500
L15.5768 118.5500
" />
<path d="M18.6732 118.9000
L18.6732 121.2464
" />
<path d="M15.5768 118.5500 A0.2500 0.2500 0.0 0 0 15.2268 118.9000" />
<path d="M15.2268 121.2464 A0.2500 0.2500 0.0 0 0 15.5768 121.5964" />
<path d="M18.6732 118.9000 A0.2500 0.2500 0.0 0 0 18.3232 118.5500" />
<path d="M18.3232 121.5964 A0.2500 0.2500 0.0 0 0 18.6732 121.2464" />
<path d="M307.5768 121.2464
L307.5768 118.9000
" />
<path d="M307.9268 121.5964
L310.6732 121.5964
" />
<path d="M310.6732 118.5500
L307.9268 118.5500
" />
<path d="M311.0232 118.9000
L311.0232 121.2464
" />
<path d="M307.9268 118.5500 A0.2500 0.2500 0.0 0 0 307.5768 118.9000" />
<path d="M307.5768 121.2464 A0.2500 0.2500 0.0 0 0 307.9268 121.5964" />
<path d="M311.0232 118.9000 A0.2500 0.2500 0.0 0 0 310.6732 118.5500" />
<path d="M310.6732 121.5964 A0.2500 0.2500 0.0 0 0 311.0232 121.2464" />
<path d="M136.6518 17.4732
L136.6518 15.1268
" />
<path d="M137.0018 17.8232
L139.7482 17.8232
" />
<path d="M139.7482 14.7768
L137.0018 14.7768
" />
<path d="M140.0982 17.4732
L140.0982 15.1268
" />
<path d="M137.0018 14.7768 A0.2500 0.2500 0.0 0 0 136.6518 15.1268" />
<path d="M136.6518 17.4732 A0.2500 0.2500 0.0 0 0 137.0018 17.8232" />
<path d="M140.0982 15.1268 A0.2500 0.2500 0.0 0 0 139.7482 14.7768" />
<path d="M139.7482 17.8232 A0.2500 0.2500 0.0 0 0 140.0982 17.4732" />
<path d="M50.9268 17.4732
L50.9268 15.1268
" />
<path d="M51.2768 17.8232
L54.0232 17.8232
" />
<path d="M54.0232 14.7768
L51.2768 14.7768
" />
<path d="M54.3732 17.4732
L54.3732 15.1268
" />
<path d="M51.2768 14.7768 A0.2500 0.2500 0.0 0 0 50.9268 15.1268" />
<path d="M50.9268 17.4732 A0.2500 0.2500 0.0 0 0 51.2768 17.8232" />
<path d="M54.3732 15.1268 A0.2500 0.2500 0.0 0 0 54.0232 14.7768" />
<path d="M54.0232 17.8232 A0.2500 0.2500 0.0 0 0 54.3732 17.4732" />
<path d="M277.1768 121.2464
L277.1768 118.9000
" />
<path d="M277.5268 121.5964
L280.2732 121.5964
" />
<path d="M280.2732 118.5500
L277.5268 118.5500
" />
<path d="M280.6232 118.9000
L280.6232 121.2464
" />
<path d="M277.5268 118.5500 A0.2500 0.2500 0.0 0 0 277.1768 118.9000" />
<path d="M277.1768 121.2464 A0.2500 0.2500 0.0 0 0 277.5268 121.5964" />
<path d="M280.6232 118.9000 A0.2500 0.2500 0.0 0 0 280.2732 118.5500" />
<path d="M280.2732 121.5964 A0.2500 0.2500 0.0 0 0 280.6232 121.2464" />
<path d="M134.2568 121.2464
L134.2568 118.9000
" />
<path d="M134.6068 121.5964
L137.3532 121.5964
" />
<path d="M137.3532 118.5500
L134.6068 118.5500
" />
<path d="M137.7032 118.9000
L137.7032 121.2464
" />
<path d="M134.6068 118.5500 A0.2500 0.2500 0.0 0 0 134.2568 118.9000" />
<path d="M134.2568 121.2464 A0.2500 0.2500 0.0 0 0 134.6068 121.5964" />
<path d="M137.7032 118.9000 A0.2500 0.2500 0.0 0 0 137.3532 118.5500" />
<path d="M137.3532 121.5964 A0.2500 0.2500 0.0 0 0 137.7032 121.2464" />
<path d="M345.6768 121.2464
L345.6768 118.9000
" />
<path d="M346.0268 121.5964
L348.7732 121.5964
" />
<path d="M348.7732 118.5500
L346.0268 118.5500
" />
<path d="M349.1232 118.9000
L349.1232 121.2464
" />
<path d="M346.0268 118.5500 A0.2500 0.2500 0.0 0 0 345.6768 118.9000" />
<path d="M345.6768 121.2464 A0.2500 0.2500 0.0 0 0 346.0268 121.5964" />
<path d="M349.1232 118.9000 A0.2500 0.2500 0.0 0 0 348.7732 118.5500" />
<path d="M348.7732 121.5964 A0.2500 0.2500 0.0 0 0 349.1232 121.2464" />
<path d="M150.9518 102.1982
L150.9518 99.8518
" />
<path d="M151.3018 102.5482
L154.0482 102.5482
" />
<path d="M154.0482 99.5018
L151.3018 99.5018
" />
<path d="M154.3982 102.1982
L154.3982 99.8518
" />
<path d="M151.3018 99.5018 A0.2500 0.2500 0.0 0 0 150.9518 99.8518" />
<path d="M150.9518 102.1982 A0.2500 0.2500 0.0 0 0 151.3018 102.5482" />
<path d="M154.3982 99.8518 A0.2500 0.2500 0.0 0 0 154.0482 99.5018" />
<path d="M154.0482 102.5482 A0.2500 0.2500 0.0 0 0 154.3982 102.1982" />
<path d="M227.1518 102.1982
L227.1518 99.8518
" />
<path d="M227.5018 102.5482
L230.2482 102.5482
" />
<path d="M230.2482 99.5018
L227.5018 99.5018
" />
<path d="M230.5982 102.1982
L230.5982 99.8518
" />
<path d="M227.5018 99.5018 A0.2500 0.2500 0.0 0 0 227.1518 99.8518" />
<path d="M227.1518 102.1982 A0.2500 0.2500 0.0 0 0 227.5018 102.5482" />
<path d="M230.5982 99.8518 A0.2500 0.2500 0.0 0 0 230.2482 99.5018" />
<path d="M230.2482 102.5482 A0.2500 0.2500 0.0 0 0 230.5982 102.1982" />
<path d="M108.0668 17.4682
L108.0668 15.1218
" />
<path d="M108.4168 17.8182
L111.1632 17.8182
" />
<path d="M111.1632 14.7718
L108.4168 14.7718
" />
<path d="M111.5132 17.4682
L111.5132 15.1218
" />
<path d="M108.4168 14.7718 A0.2500 0.2500 0.0 0 0 108.0668 15.1218" />
<path d="M108.0668 17.4682 A0.2500 0.2500 0.0 0 0 108.4168 17.8182" />
<path d="M111.5132 15.1218 A0.2500 0.2500 0.0 0 0 111.1632 14.7718" />
<path d="M111.1632 17.8182 A0.2500 0.2500 0.0 0 0 111.5132 17.4682" />
<path d="M39.0318 121.2464
L39.0318 118.9000
" />
<path d="M39.3818 121.5964
L42.1282 121.5964
" />
<path d="M42.1282 118.5500
L39.3818 118.5500
" />
<path d="M42.4782 118.9000
L42.4782 121.2464
" />
<path d="M39.3818 118.5500 A0.2500 0.2500 0.0 0 0 39.0318 118.9000" />
<path d="M39.0318 121.2464 A0.2500 0.2500 0.0 0 0 39.3818 121.5964" />
<path d="M42.4782 118.9000 A0.2500 0.2500 0.0 0 0 42.1282 118.5500" />
<path d="M42.1282 121.5964 A0.2500 0.2500 0.0 0 0 42.4782 121.2464" />
<path d="M74.7518 102.1982
L74.7518 99.8518
" />
<path d="M75.1018 102.5482
L77.8482 102.5482
" />
<path d="M77.8482 99.5018
L75.1018 99.5018
" />
<path d="M78.1982 102.1982
L78.1982 99.8518
" />
<path d="M75.1018 99.5018 A0.2500 0.2500 0.0 0 0 74.7518 99.8518" />
<path d="M74.7518 102.1982 A0.2500 0.2500 0.0 0 0 75.1018 102.5482" />
<path d="M78.1982 99.8518 A0.2500 0.2500 0.0 0 0 77.8482 99.5018" />
<path d="M77.8482 102.5482 A0.2500 0.2500 0.0 0 0 78.1982 102.1982" />
<path d="M108.0768 45.0464
L108.0768 42.7000
" />
<path d="M108.4268 45.3964
L111.1732 45.3964
" />
<path d="M111.1732 42.3500
L108.4268 42.3500
" />
<path d="M111.5232 42.7000
L111.5232 45.0464
" />
<path d="M108.4268 42.3500 A0.2500 0.2500 0.0 0 0 108.0768 42.7000" />
<path d="M108.0768 45.0464 A0.2500 0.2500 0.0 0 0 108.4268 45.3964" />
<path d="M111.5232 42.7000 A0.2500 0.2500 0.0 0 0 111.1732 42.3500" />
<path d="M111.1732 45.3964 A0.2500 0.2500 0.0 0 0 111.5232 45.0464" />
<path d="M98.5518 64.0982
L98.5518 61.7518
" />
<path d="M98.9018 64.4482
L101.6482 64.4482
" />
<path d="M101.6482 61.4018
L98.9018 61.4018
" />
<path d="M101.9982 64.0982
L101.9982 61.7518
" />
<path d="M98.9018 61.4018 A0.2500 0.2500 0.0 0 0 98.5518 61.7518" />
<path d="M98.5518 64.0982 A0.2500 0.2500 0.0 0 0 98.9018 64.4482" />
<path d="M101.9982 61.7518 A0.2500 0.2500 0.0 0 0 101.6482 61.4018" />
<path d="M101.6482 64.4482 A0.2500 0.2500 0.0 0 0 101.9982 64.0982" />
<path d="M231.9018 64.0982
L231.9018 61.7518
" />
<path d="M232.2518 64.4482
L234.9982 64.4482
" />
<path d="M234.9982 61.4018
L232.2518 61.4018
" />
<path d="M235.3482 64.0982
L235.3482 61.7518
" />
<path d="M232.2518 61.4018 A0.2500 0.2500 0.0 0 0 231.9018 61.7518" />
<path d="M231.9018 64.0982 A0.2500 0.2500 0.0 0 0 232.2518 64.4482" />
<path d="M235.3482 61.7518 A0.2500 0.2500 0.0 0 0 234.9982 61.4018" />
<path d="M234.9982 64.4482 A0.2500 0.2500 0.0 0 0 235.3482 64.0982" />
<path d="M277.1518 73.6232
L277.1518 71.2768
" />
<path d="M277.5018 73.9732
L280.2482 73.9732
" />
<path d="M280.2482 70.9268
L277.5018 70.9268
" />
<path d="M280.5982 73.6232
L280.5982 71.2768
" />
<path d="M277.5018 70.9268 A0.2500 0.2500 0.0 0 0 277.1518 71.2768" />
<path d="M277.1518 73.6232 A0.2500 0.2500 0.0 0 0 277.5018 73.9732" />
<path d="M280.5982 71.2768 A0.2500 0.2500 0.0 0 0 280.2482 70.9268" />
<path d="M280.2482 73.9732 A0.2500 0.2500 0.0 0 0 280.5982 73.6232" />
<path d="M270.0068 45.0464
L270.0068 42.7000
" />
<path d="M270.3568 45.3964
L273.1032 45.3964
" />
<path d="M273.1032 42.3500
L270.3568 42.3500
" />
<path d="M273.4532 42.7000
L273.4532 45.0464
" />
<path d="M270.3568 42.3500 A0.2500 0.2500 0.0 0 0 270.0068 42.7000" />
<path d="M270.0068 45.0464 A0.2500 0.2500 0.0 0 0 270.3568 45.3964" />
<path d="M273.4532 42.7000 A0.2500 0.2500 0.0 0 0 273.1032 42.3500" />
<path d="M273.1032 45.3964 A0.2500 0.2500 0.0 0 0 273.4532 45.0464" />
<path d="M241.4268 17.4732
L241.4268 15.1268
" />
<path d="M241.7768 17.8232
L244.5232 17.8232
" />
<path d="M244.5232 14.7768
L241.7768 14.7768
" />
<path d="M244.8732 17.4732
L244.8732 15.1268
" />
<path d="M241.7768 14.7768 A0.2500 0.2500 0.0 0 0 241.4268 15.1268" />
<path d="M241.4268 17.4732 A0.2500 0.2500 0.0 0 0 241.7768 17.8232" />
<path d="M244.8732 15.1268 A0.2500 0.2500 0.0 0 0 244.5232 14.7768" />
<path d="M244.5232 17.8232 A0.2500 0.2500 0.0 0 0 244.8732 17.4732" />
<path d="M12.8268 17.4732
L12.8268 15.1268
" />
<path d="M13.1768 17.8232
L15.9232 17.8232
" />
<path d="M15.9232 14.7768
L13.1768 14.7768
" />
<path d="M16.2732 17.4732
L16.2732 15.1268
" />
<path d="M13.1768 14.7768 A0.2500 0.2500 0.0 0 0 12.8268 15.1268" />
<path d="M12.8268 17.4732 A0.2500 0.2500 0.0 0 0 13.1768 17.8232" />
<path d="M16.2732 15.1268 A0.2500 0.2500 0.0 0 0 15.9232 14.7768" />
<path d="M15.9232 17.8232 A0.2500 0.2500 0.0 0 0 16.2732 17.4732" />
<path d="M307.5518 45.0464
L307.5518 42.7000
" />
<path d="M307.9018 45.3964
L310.6482 45.3964
" />
<path d="M310.6482 42.3500
L307.9018 42.3500
" />
<path d="M310.9982 42.7000
L310.9982 45.0464
" />
<path d="M307.9018 42.3500 A0.2500 0.2500 0.0 0 0 307.5518 42.7000" />
<path d="M307.5518 45.0464 A0.2500 0.2500 0.0 0 0 307.9018 45.3964" />
<path d="M310.9982 42.7000 A0.2500 0.2500 0.0 0 0 310.6482 42.3500" />
<path d="M310.6482 45.3964 A0.2500 0.2500 0.0 0 0 310.9982 45.0464" />
<path d="M326.6018 64.0982
L326.6018 61.7518
" />
<path d="M326.9518 64.4482
L329.6982 64.4482
" />
<path d="M329.6982 61.4018
L326.9518 61.4018
" />
<path d="M330.0482 64.0982
L330.0482 61.7518
" />
<path d="M326.9518 61.4018 A0.2500 0.2500 0.0 0 0 326.6018 61.7518" />
<path d="M326.6018 64.0982 A0.2500 0.2500 0.0 0 0 326.9518 64.4482" />
<path d="M330.0482 61.7518 A0.2500 0.2500 0.0 0 0 329.6982 61.4018" />
<path d="M329.6982 64.4482 A0.2500 0.2500 0.0 0 0 330.0482 64.0982" />
<path d="M326.6018 45.0464
L326.6018 42.7000
" />
<path d="M326.9518 45.3964
L329.6982 45.3964
" />
<path d="M329.6982 42.3500
L326.9518 42.3500
" />
<path d="M330.0482 42.7000
L330.0482 45.0464
" />
<path d="M326.9518 42.3500 A0.2500 0.2500 0.0 0 0 326.6018 42.7000" />
<path d="M326.6018 45.0464 A0.2500 0.2500 0.0 0 0 326.9518 45.3964" />
<path d="M330.0482 42.7000 A0.2500 0.2500 0.0 0 0 329.6982 42.3500" />
<path d="M329.6982 45.3964 A0.2500 0.2500 0.0 0 0 330.0482 45.0464" />
<path d="M241.4268 45.0464
L241.4268 42.7000
" />
<path d="M241.7768 45.3964
L244.5232 45.3964
" />
<path d="M244.5232 42.3500
L241.7768 42.3500
" />
<path d="M244.8732 42.7000
L244.8732 45.0464
" />
<path d="M241.7768 42.3500 A0.2500 0.2500 0.0 0 0 241.4268 42.7000" />
<path d="M241.4268 45.0464 A0.2500 0.2500 0.0 0 0 241.7768 45.3964" />
<path d="M244.8732 42.7000 A0.2500 0.2500 0.0 0 0 244.5232 42.3500" />
<path d="M244.5232 45.3964 A0.2500 0.2500 0.0 0 0 244.8732 45.0464" />
<path d="M17.5818 64.0932
L17.5818 61.7468
" />
<path d="M17.9318 64.4432
L20.6782 64.4432
" />
<path d="M20.6782 61.3968
L17.9318 61.3968
" />
<path d="M21.0282 64.0932
L21.0282 61.7468
" />
<path d="M17.9318 61.3968 A0.2500 0.2500 0.0 0 0 17.5818 61.7468" />
<path d="M17.5818 64.0932 A0.2500 0.2500 0.0 0 0 17.9318 64.4432" />
<path d="M21.0282 61.7468 A0.2500 0.2500 0.0 0 0 20.6782 61.3968" />
<path d="M20.6782 64.4432 A0.2500 0.2500 0.0 0 0 21.0282 64.0932" />
<path d="M255.7268 83.1464
L255.7268 80.8000
" />
<path d="M256.0768 83.4964
L258.8232 83.4964
" />
<path d="M258.8232 80.4500
L256.0768 80.4500
" />
<path d="M259.1732 80.8000
L259.1732 83.1464
" />
<path d="M256.0768 80.4500 A0.2500 0.2500 0.0 0 0 255.7268 80.8000" />
<path d="M255.7268 83.1464 A0.2500 0.2500 0.0 0 0 256.0768 83.4964" />
<path d="M259.1732 80.8000 A0.2500 0.2500 0.0 0 0 258.8232 80.4500" />
<path d="M258.8232 83.4964 A0.2500 0.2500 0.0 0 0 259.1732 83.1464" />
<path d="M345.6518 64.0982
L345.6518 61.7518
" />
<path d="M346.0018 64.4482
L348.7482 64.4482
" />
<path d="M348.7482 61.4018
L346.0018 61.4018
" />
<path d="M349.0982 64.0982
L349.0982 61.7518
" />
<path d="M346.0018 61.4018 A0.2500 0.2500 0.0 0 0 345.6518 61.7518" />
<path d="M345.6518 64.0982 A0.2500 0.2500 0.0 0 0 346.0018 64.4482" />
<path d="M349.0982 61.7518 A0.2500 0.2500 0.0 0 0 348.7482 61.4018" />
<path d="M348.7482 64.4482 A0.2500 0.2500 0.0 0 0 349.0982 64.0982" />
<path d="M193.8018 64.0982
L193.8018 61.7518
" />
<path d="M194.1518 64.4482
L196.8982 64.4482
" />
<path d="M196.8982 61.4018
L194.1518 61.4018
" />
<path d="M197.2482 64.0982
L197.2482 61.7518
" />
<path d="M194.1518 61.4018 A0.2500 0.2500 0.0 0 0 193.8018 61.7518" />
<path d="M193.8018 64.0982 A0.2500 0.2500 0.0 0 0 194.1518 64.4482" />
<path d="M197.2482 61.7518 A0.2500 0.2500 0.0 0 0 196.8982 61.4018" />
<path d="M196.8982 64.4482 A0.2500 0.2500 0.0 0 0 197.2482 64.0982" />
<path d="M212.8518 64.0982
L212.8518 61.7518
" />
<path d="M213.2018 64.4482
L215.9482 64.4482
" />
<path d="M215.9482 61.4018
L213.2018 61.4018
" />
<path d="M216.2982 64.0982
L216.2982 61.7518
" />
<path d="M213.2018 61.4018 A0.2500 0.2500 0.0 0 0 212.8518 61.7518" />
<path d="M212.8518 64.0982 A0.2500 0.2500 0.0 0 0 213.2018 64.4482" />
<path d="M216.2982 61.7518 A0.2500 0.2500 0.0 0 0 215.9482 61.4018" />
<path d="M215.9482 64.4482 A0.2500 0.2500 0.0 0 0 216.2982 64.0982" />
<path d="M69.9768 17.4732
L69.9768 15.1268
" />
<path d="M70.3268 17.8232
L73.0732 17.8232
" />
<path d="M73.0732 14.7768
L70.3268 14.7768
" />
<path d="M73.4232 17.4732
L73.4232 15.1268
" />
<path d="M70.3268 14.7768 A0.2500 0.2500 0.0 0 0 69.9768 15.1268" />
<path d="M69.9768 17.4732 A0.2500 0.2500 0.0 0 0 70.3268 17.8232" />
<path d="M73.4232 15.1268 A0.2500 0.2500 0.0 0 0 73.0732 14.7768" />
<path d="M73.0732 17.8232 A0.2500 0.2500 0.0 0 0 73.4232 17.4732" />
<path d="M31.8768 45.0464
L31.8768 42.7000
" />
<path d="M32.2268 45.3964
L34.9732 45.3964
" />
<path d="M34.9732 42.3500
L32.2268 42.3500
" />
<path d="M35.3232 42.7000
L35.3232 45.0464
" />
<path d="M32.2268 42.3500 A0.2500 0.2500 0.0 0 0 31.8768 42.7000" />
<path d="M31.8768 45.0464 A0.2500 0.2500 0.0 0 0 32.2268 45.3964" />
<path d="M35.3232 42.7000 A0.2500 0.2500 0.0 0 0 34.9732 42.3500" />
<path d="M34.9732 45.3964 A0.2500 0.2500 0.0 0 0 35.3232 45.0464" />
<path d="M89.0268 17.4732
L89.0268 15.1268
" />
<path d="M89.3768 17.8232
L92.1232 17.8232
" />
<path d="M92.1232 14.7768
L89.3768 14.7768
" />
<path d="M92.4732 17.4732
L92.4732 15.1268
" />
<path d="M89.3768 14.7768 A0.2500 0.2500 0.0 0 0 89.0268 15.1268" />
<path d="M89.0268 17.4732 A0.2500 0.2500 0.0 0 0 89.3768 17.8232" />
<path d="M92.4732 15.1268 A0.2500 0.2500 0.0 0 0 92.1232 14.7768" />
<path d="M92.1232 17.8232 A0.2500 0.2500 0.0 0 0 92.4732 17.4732" />
<path d="M103.3268 83.1464
L103.3268 80.8000
" />
<path d="M103.6768 83.4964
L106.4232 83.4964
" />
<path d="M106.4232 80.4500
L103.6768 80.4500
" />
<path d="M106.7732 80.8000
L106.7732 83.1464
" />
<path d="M103.6768 80.4500 A0.2500 0.2500 0.0 0 0 103.3268 80.8000" />
<path d="M103.3268 83.1464 A0.2500 0.2500 0.0 0 0 103.6768 83.4964" />
<path d="M106.7732 80.8000 A0.2500 0.2500 0.0 0 0 106.4232 80.4500" />
<path d="M106.4232 83.4964 A0.2500 0.2500 0.0 0 0 106.7732 83.1464" />
<path d="M222.3768 17.4732
L222.3768 15.1268
" />
<path d="M222.7268 17.8232
L225.4732 17.8232
" />
<path d="M225.4732 14.7768
L222.7268 14.7768
" />
<path d="M225.8232 17.4732
L225.8232 15.1268
" />
<path d="M222.7268 14.7768 A0.2500 0.2500 0.0 0 0 222.3768 15.1268" />
<path d="M222.3768 17.4732 A0.2500 0.2500 0.0 0 0 222.7268 17.8232" />
<path d="M225.8232 15.1268 A0.2500 0.2500 0.0 0 0 225.4732 14.7768" />
<path d="M225.4732 17.8232 A0.2500 0.2500 0.0 0 0 225.8232 17.4732" />
<path d="M117.6018 64.0982
L117.6018 61.7518
" />
<path d="M117.9518 64.4482
L120.6982 64.4482
" />
<path d="M120.6982 61.4018
L117.9518 61.4018
" />
<path d="M121.0482 64.0982
L121.0482 61.7518
" />
<path d="M117.9518 61.4018 A0.2500 0.2500 0.0 0 0 117.6018 61.7518" />
<path d="M117.6018 64.0982 A0.2500 0.2500 0.0 0 0 117.9518 64.4482" />
<path d="M121.0482 61.7518 A0.2500 0.2500 0.0 0 0 120.6982 61.4018" />
<path d="M120.6982 64.4482 A0.2500 0.2500 0.0 0 0 121.0482 64.0982" />
<path d="M326.6268 121.2464
L326.6268 118.9000
" />
<path d="M326.9768 121.5964
L329.7232 121.5964
" />
<path d="M329.7232 118.5500
L326.9768 118.5500
" />
<path d="M330.0732 118.9000
L330.0732 121.2464
" />
<path d="M326.9768 118.5500 A0.2500 0.2500 0.0 0 0 326.6268 118.9000" />
<path d="M326.6268 121.2464 A0.2500 0.2500 0.0 0 0 326.9768 121.5964" />
<path d="M330.0732 118.9000 A0.2500 0.2500 0.0 0 0 329.7232 118.5500" />
<path d="M329.7232 121.5964 A0.2500 0.2500 0.0 0 0 330.0732 121.2464" />
<path d="M131.9018 102.1982
L131.9018 99.8518
" />
<path d="M132.2518 102.5482
L134.9982 102.5482
" />
<path d="M134.9982 99.5018
L132.2518 99.5018
" />
<path d="M135.3482 102.1982
L135.3482 99.8518
" />
<path d="M132.2518 99.5018 A0.2500 0.2500 0.0 0 0 131.9018 99.8518" />
<path d="M131.9018 102.1982 A0.2500 0.2500 0.0 0 0 132.2518 102.5482" />
<path d="M135.3482 99.8518 A0.2500 0.2500 0.0 0 0 134.9982 99.5018" />
<path d="M134.9982 102.5482 A0.2500 0.2500 0.0 0 0 135.3482 102.1982" />
<path d="M79.5018 64.0982
L79.5018 61.7518
" />
<path d="M79.8518 64.4482
L82.5982 64.4482
" />
<path d="M82.5982 61.4018
L79.8518 61.4018
" />
<path d="M82.9482 64.0982
L82.9482 61.7518
" />
<path d="M79.8518 61.4018 A0.2500 0.2500 0.0 0 0 79.5018 61.7518" />
<path d="M79.5018 64.0982 A0.2500 0.2500 0.0 0 0 79.8518 64.4482" />
<path d="M82.9482 61.7518 A0.2500 0.2500 0.0 0 0 82.5982 61.4018" />
<path d="M82.5982 64.4482 A0.2500 0.2500 0.0 0 0 82.9482 64.0982" />
<path d="M253.3518 121.2464
L253.3518 118.9000
" />
<path d="M253.7018 121.5964
L256.4482 121.5964
" />
<path d="M256.4482 118.5500
L253.7018 118.5500
" />
<path d="M256.7982 118.9000
L256.7982 121.2464
" />
<path d="M253.7018 118.5500 A0.2500 0.2500 0.0 0 0 253.3518 118.9000" />
<path d="M253.3518 121.2464 A0.2500 0.2500 0.0 0 0 253.7018 121.5964" />
<path d="M256.7982 118.9000 A0.2500 0.2500 0.0 0 0 256.4482 118.5500" />
<path d="M256.4482 121.5964 A0.2500 0.2500 0.0 0 0 256.7982 121.2464" />
<path d="M229.5268 121.2464
L229.5268 118.9000
" />
<path d="M229.8768 121.5964
L232.6232 121.5964
" />
<path d="M232.6232 118.5500
L229.8768 118.5500
" />
<path d="M232.9732 118.9000
L232.9732 121.2464
" />
<path d="M229.8768 118.5500 A0.2500 0.2500 0.0 0 0 229.5268 118.9000" />
<path d="M229.5268 121.2464 A0.2500 0.2500 0.0 0 0 229.8768 121.5964" />
<path d="M232.9732 118.9000 A0.2500 0.2500 0.0 0 0 232.6232 118.5500" />
<path d="M232.6232 121.5964 A0.2500 0.2500 0.0 0 0 232.9732 121.2464" />
<path d="M155.7068 17.4732
L155.7068 15.1268
" />
<path d="M156.0568 17.8232
L158.8032 17.8232
" />
<path d="M158.8032 14.7768
L156.0568 14.7768
" />
<path d="M159.1532 17.4732
L159.1532 15.1268
" />
<path d="M156.0568 14.7768 A0.2500 0.2500 0.0 0 0 155.7068 15.1268" />
<path d="M155.7068 17.4732 A0.2500 0.2500 0.0 0 0 156.0568 17.8232" />
<path d="M159.1532 15.1268 A0.2500 0.2500 0.0 0 0 158.8032 14.7768" />
<path d="M158.8032 17.8232 A0.2500 0.2500 0.0 0 0 159.1532 17.4732" />
<path d="M127.1268 45.0464
L127.1268 42.7000
" />
<path d="M127.4768 45.3964
L130.2232 45.3964
" />
<path d="M130.2232 42.3500
L127.4768 42.3500
" />
<path d="M130.5732 42.7000
L130.5732 45.0464
" />
<path d="M127.4768 42.3500 A0.2500 0.2500 0.0 0 0 127.1268 42.7000" />
<path d="M127.1268 45.0464 A0.2500 0.2500 0.0 0 0 127.4768 45.3964" />
<path d="M130.5732 42.7000 A0.2500 0.2500 0.0 0 0 130.2232 42.3500" />
<path d="M130.2232 45.3964 A0.2500 0.2500 0.0 0 0 130.5732 45.0464" />
<path d="M260.4818 17.4732
L260.4818 15.1268
" />
<path d="M260.8318 17.8232
L263.5782 17.8232
" />
<path d="M263.5782 14.7768
L260.8318 14.7768
" />
<path d="M263.9282 17.4732
L263.9282 15.1268
" />
<path d="M260.8318 14.7768 A0.2500 0.2500 0.0 0 0 260.4818 15.1268" />
<path d="M260.4818 17.4732 A0.2500 0.2500 0.0 0 0 260.8318 17.8232" />
<path d="M263.9282 15.1268 A0.2500 0.2500 0.0 0 0 263.5782 14.7768" />
<path d="M263.5782 17.8232 A0.2500 0.2500 0.0 0 0 263.9282 17.4732" />
<path d="M203.3268 45.0464
L203.3268 42.7000
" />
<path d="M203.6768 45.3964
L206.4232 45.3964
" />
<path d="M206.4232 42.3500
L203.6768 42.3500
" />
<path d="M206.7732 42.7000
L206.7732 45.0464
" />
<path d="M203.6768 42.3500 A0.2500 0.2500 0.0 0 0 203.3268 42.7000" />
<path d="M203.3268 45.0464 A0.2500 0.2500 0.0 0 0 203.6768 45.3964" />
<path d="M206.7732 42.7000 A0.2500 0.2500 0.0 0 0 206.4232 42.3500" />
<path d="M206.4232 45.3964 A0.2500 0.2500 0.0 0 0 206.7732 45.0464" />
<path d="M170.0018 102.1982
L170.0018 99.8518
" />
<path d="M170.3518 102.5482
L173.0982 102.5482
" />
<path d="M173.0982 99.5018
L170.3518 99.5018
" />
<path d="M173.4482 102.1982
L173.4482 99.8518
" />
<path d="M170.3518 99.5018 A0.2500 0.2500 0.0 0 0 170.0018 99.8518" />
<path d="M170.0018 102.1982 A0.2500 0.2500 0.0 0 0 170.3518 102.5482" />
<path d="M173.4482 99.8518 A0.2500 0.2500 0.0 0 0 173.0982 99.5018" />
<path d="M173.0982 102.5482 A0.2500 0.2500 0.0 0 0 173.4482 102.1982" />
<path d="M208.1018 102.1982
L208.1018 99.8518
" />
<path d="M208.4518 102.5482
L211.1982 102.5482
" />
<path d="M211.1982 99.5018
L208.4518 99.5018
" />
<path d="M211.5482 102.1982
L211.5482 99.8518
" />
<path d="M208.4518 99.5018 A0.2500 0.2500 0.0 0 0 208.1018 99.8518" />
<path d="M208.1018 102.1982 A0.2500 0.2500 0.0 0 0 208.4518 102.5482" />
<path d="M211.5482 99.8518 A0.2500 0.2500 0.0 0 0 211.1982 99.5018" />
<path d="M211.1982 102.5482 A0.2500 0.2500 0.0 0 0 211.5482 102.1982" />
<path d="M69.9768 45.0464
L69.9768 42.7000
" />
<path d="M70.3268 45.3964
L73.0732 45.3964
" />
<path d="M73.0732 42.3500
L70.3268 42.3500
" />
<path d="M73.4232 42.7000
L73.4232 45.0464
" />
<path d="M70.3268 42.3500 A0.2500 0.2500 0.0 0 0 69.9768 42.7000" />
<path d="M69.9768 45.0464 A0.2500 0.2500 0.0 0 0 70.3268 45.3964" />
<path d="M73.4232 42.7000 A0.2500 0.2500 0.0 0 0 73.0732 42.3500" />
<path d="M73.0732 45.3964 A0.2500 0.2500 0.0 0 0 73.4232 45.0464" />
<path d="M217.6268 83.1464
L217.6268 80.8000
" />
<path d="M217.9768 83.4964
L220.7232 83.4964
" />
<path d="M220.7232 80.4500
L217.9768 80.4500
" />
<path d="M221.0732 80.8000
L221.0732 83.1464
" />
<path d="M217.9768 80.4500 A0.2500 0.2500 0.0 0 0 217.6268 80.8000" />
<path d="M217.6268 83.1464 A0.2500 0.2500 0.0 0 0 217.9768 83.4964" />
<path d="M221.0732 80.8000 A0.2500 0.2500 0.0 0 0 220.7232 80.4500" />
<path d="M220.7232 83.4964 A0.2500 0.2500 0.0 0 0 221.0732 83.1464" />
<path d="M174.7568 17.4732
L174.7568 15.1268
" />
<path d="M175.1068 17.8232
L177.8532 17.8232
" />
<path d="M177.8532 14.7768
L175.1068 14.7768
" />
<path d="M178.2032 17.4732
L178.2032 15.1268
" />
<path d="M175.1068 14.7768 A0.2500 0.2500 0.0 0 0 174.7568 15.1268" />
<path d="M174.7568 17.4732 A0.2500 0.2500 0.0 0 0 175.1068 17.8232" />
<path d="M178.2032 15.1268 A0.2500 0.2500 0.0 0 0 177.8532 14.7768" />
<path d="M177.8532 17.8232 A0.2500 0.2500 0.0 0 0 178.2032 17.4732" />
<path d="M136.6518 64.0982
L136.6518 61.7518
" />
<path d="M137.0018 64.4482
L139.7482 64.4482
" />
<path d="M139.7482 61.4018
L137.0018 61.4018
" />
<path d="M140.0982 64.0982
L140.0982 61.7518
" />
<path d="M137.0018 61.4018 A0.2500 0.2500 0.0 0 0 136.6518 61.7518" />
<path d="M136.6518 64.0982 A0.2500 0.2500 0.0 0 0 137.0018 64.4482" />
<path d="M140.0982 61.7518 A0.2500 0.2500 0.0 0 0 139.7482 61.4018" />
<path d="M139.7482 64.4482 A0.2500 0.2500 0.0 0 0 140.0982 64.0982" />
<path d="M55.7018 102.1982
L55.7018 99.8518
" />
<path d="M56.0518 102.5482
L58.7982 102.5482
" />
<path d="M58.7982 99.5018
L56.0518 99.5018
" />
<path d="M59.1482 102.1982
L59.1482 99.8518
" />
<path d="M56.0518 99.5018 A0.2500 0.2500 0.0 0 0 55.7018 99.8518" />
<path d="M55.7018 102.1982 A0.2500 0.2500 0.0 0 0 56.0518 102.5482" />
<path d="M59.1482 99.8518 A0.2500 0.2500 0.0 0 0 58.7982 99.5018" />
<path d="M58.7982 102.5482 A0.2500 0.2500 0.0 0 0 59.1482 102.1982" />
<path d="M12.8268 45.0464
L12.8268 42.7000
" />
<path d="M13.1768 45.3964
L15.9232 45.3964
" />
<path d="M15.9232 42.3500
L13.1768 42.3500
" />
<path d="M16.2732 42.7000
L16.2732 45.0464
" />
<path d="M13.1768 42.3500 A0.2500 0.2500 0.0 0 0 12.8268 42.7000" />
<path d="M12.8268 45.0464 A0.2500 0.2500 0.0 0 0 13.1768 45.3964" />
<path d="M16.2732 42.7000 A0.2500 0.2500 0.0 0 0 15.9232 42.3500" />
<path d="M15.9232 45.3964 A0.2500 0.2500 0.0 0 0 16.2732 45.0464" />
<path d="M46.1768 83.1464
L46.1768 80.8000
" />
<path d="M46.5268 83.4964
L49.2732 83.4964
" />
<path d="M49.2732 80.4500
L46.5268 80.4500
" />
<path d="M49.6232 80.8000
L49.6232 83.1464
" />
<path d="M46.5268 80.4500 A0.2500 0.2500 0.0 0 0 46.1768 80.8000" />
<path d="M46.1768 83.1464 A0.2500 0.2500 0.0 0 0 46.5268 83.4964" />
<path d="M49.6232 80.8000 A0.2500 0.2500 0.0 0 0 49.2732 80.4500" />
<path d="M49.2732 83.4964 A0.2500 0.2500 0.0 0 0 49.6232 83.1464" />
<path d="M236.6768 83.1464
L236.6768 80.8000
" />
<path d="M237.0268 83.4964
L239.7732 83.4964
" />
<path d="M239.7732 80.4500
L237.0268 80.4500
" />
<path d="M240.1232 80.8000
L240.1232 83.1464
" />
<path d="M237.0268 80.4500 A0.2500 0.2500 0.0 0 0 236.6768 80.8000" />
<path d="M236.6768 83.1464 A0.2500 0.2500 0.0 0 0 237.0268 83.4964" />
<path d="M240.1232 80.8000 A0.2500 0.2500 0.0 0 0 239.7732 80.4500" />
<path d="M239.7732 83.4964 A0.2500 0.2500 0.0 0 0 240.1232 83.1464" />
<path d="M36.6568 102.1982
L36.6568 99.8518
" />
<path d="M37.0068 102.5482
L39.7532 102.5482
" />
<path d="M39.7532 99.5018
L37.0068 99.5018
" />
<path d="M40.1032 102.1982
L40.1032 99.8518
" />
<path d="M37.0068 99.5018 A0.2500 0.2500 0.0 0 0 36.6568 99.8518" />
<path d="M36.6568 102.1982 A0.2500 0.2500 0.0 0 0 37.0068 102.5482" />
<path d="M40.1032 99.8518 A0.2500 0.2500 0.0 0 0 39.7532 99.5018" />
<path d="M39.7532 102.5482 A0.2500 0.2500 0.0 0 0 40.1032 102.1982" />
<path d="M262.8768 102.1982
L262.8768 99.8518
" />
<path d="M263.2268 102.5482
L265.9732 102.5482
" />
<path d="M265.9732 99.5018
L263.2268 99.5018
" />
<path d="M266.3232 102.1982
L266.3232 99.8518
" />
<path d="M263.2268 99.5018 A0.2500 0.2500 0.0 0 0 262.8768 99.8518" />
<path d="M262.8768 102.1982 A0.2500 0.2500 0.0 0 0 263.2268 102.5482" />
<path d="M266.3232 99.8518 A0.2500 0.2500 0.0 0 0 265.9732 99.5018" />
<path d="M265.9732 102.5482 A0.2500 0.2500 0.0 0 0 266.3232 102.1982" />
<path d="M189.0518 102.1982
L189.0518 99.8518
" />
<path d="M189.4018 102.5482
L192.1482 102.5482
" />
<path d="M192.1482 99.5018
L189.4018 99.5018
" />
<path d="M192.4982 102.1982
L192.4982 99.8518
" />
<path d="M189.4018 99.5018 A0.2500 0.2500 0.0 0 0 189.0518 99.8518" />
<path d="M189.0518 102.1982 A0.2500 0.2500 0.0 0 0 189.4018 102.5482" />
<path d="M192.4982 99.8518 A0.2500 0.2500 0.0 0 0 192.1482 99.5018" />
<path d="M192.1482 102.5482 A0.2500 0.2500 0.0 0 0 192.4982 102.1982" />
<path d="M60.4518 64.0982
L60.4518 61.7518
" />
<path d="M60.8018 64.4482
L63.5482 64.4482
" />
<path d="M63.5482 61.4018
L60.8018 61.4018
" />
<path d="M63.8982 64.0982
L63.8982 61.7518
" />
<path d="M60.8018 61.4018 A0.2500 0.2500 0.0 0 0 60.4518 61.7518" />
<path d="M60.4518 64.0982 A0.2500 0.2500 0.0 0 0 60.8018 64.4482" />
<path d="M63.8982 61.7518 A0.2500 0.2500 0.0 0 0 63.5482 61.4018" />
<path d="M63.5482 64.4482 A0.2500 0.2500 0.0 0 0 63.8982 64.0982" />
<path d="M50.9268 45.0464
L50.9268 42.7000
" />
<path d="M51.2768 45.3964
L54.0232 45.3964
" />
<path d="M54.0232 42.3500
L51.2768 42.3500
" />
<path d="M54.3732 42.7000
L54.3732 45.0464
" />
<path d="M51.2768 42.3500 A0.2500 0.2500 0.0 0 0 50.9268 42.7000" />
<path d="M50.9268 45.0464 A0.2500 0.2500 0.0 0 0 51.2768 45.3964" />
<path d="M54.3732 42.7000 A0.2500 0.2500 0.0 0 0 54.0232 42.3500" />
<path d="M54.0232 45.3964 A0.2500 0.2500 0.0 0 0 54.3732 45.0464" />
<path d="M122.3768 83.1464
L122.3768 80.8000
" />
<path d="M122.7268 83.4964
L125.4732 83.4964
" />
<path d="M125.4732 80.4500
L122.7268 80.4500
" />
<path d="M125.8232 80.8000
L125.8232 83.1464
" />
<path d="M122.7268 80.4500 A0.2500 0.2500 0.0 0 0 122.3768 80.8000" />
<path d="M122.3768 83.1464 A0.2500 0.2500 0.0 0 0 122.7268 83.4964" />
<path d="M125.8232 80.8000 A0.2500 0.2500 0.0 0 0 125.4732 80.4500" />
<path d="M125.4732 83.4964 A0.2500 0.2500 0.0 0 0 125.8232 83.1464" />
<path d="M326.6268 102.1982
L326.6268 99.8518
" />
<path d="M326.9768 102.5482
L329.7232 102.5482
" />
<path d="M329.7232 99.5018
L326.9768 99.5018
" />
<path d="M330.0732 102.1982
L330.0732 99.8518
" />
<path d="M326.9768 99.5018 A0.2500 0.2500 0.0 0 0 326.6268 99.8518" />
<path d="M326.6268 102.1982 A0.2500 0.2500 0.0 0 0 326.9768 102.5482" />
<path d="M330.0732 99.8518 A0.2500 0.2500 0.0 0 0 329.7232 99.5018" />
<path d="M329.7232 102.5482 A0.2500 0.2500 0.0 0 0 330.0732 102.1982" />
<path d="M15.2218 102.1982
L15.2218 99.8518
" />
<path d="M15.5718 102.5482
L18.3182 102.5482
" />
<path d="M18.3182 99.5018
L15.5718 99.5018
" />
<path d="M18.6682 102.1982
L18.6682 99.8518
" />
<path d="M15.5718 99.5018 A0.2500 0.2500 0.0 0 0 15.2218 99.8518" />
<path d="M15.2218 102.1982 A0.2500 0.2500 0.0 0 0 15.5718 102.5482" />
<path d="M18.6682 99.8518 A0.2500 0.2500 0.0 0 0 18.3182 99.5018" />
<path d="M18.3182 102.5482 A0.2500 0.2500 0.0 0 0 18.6682 102.1982" />
<path d="M155.7018 64.0982
L155.7018 61.7518
" />
<path d="M156.0518 64.4482
L158.7982 64.4482
" />
<path d="M158.7982 61.4018
L156.0518 61.4018
" />
<path d="M159.1482 64.0982
L159.1482 61.7518
" />
<path d="M156.0518 61.4018 A0.2500 0.2500 0.0 0 0 155.7018 61.7518" />
<path d="M155.7018 64.0982 A0.2500 0.2500 0.0 0 0 156.0518 64.4482" />
<path d="M159.1482 61.7518 A0.2500 0.2500 0.0 0 0 158.7982 61.4018" />
<path d="M158.7982 64.4482 A0.2500 0.2500 0.0 0 0 159.1482 64.0982" />
<path d="M62.8318 121.2464
L62.8318 118.9000
" />
<path d="M63.1818 121.5964
L65.9282 121.5964
" />
<path d="M65.9282 118.5500
L63.1818 118.5500
" />
<path d="M66.2782 118.9000
L66.2782 121.2464
" />
<path d="M63.1818 118.5500 A0.2500 0.2500 0.0 0 0 62.8318 118.9000" />
<path d="M62.8318 121.2464 A0.2500 0.2500 0.0 0 0 63.1818 121.5964" />
<path d="M66.2782 118.9000 A0.2500 0.2500 0.0 0 0 65.9282 118.5500" />
<path d="M65.9282 121.5964 A0.2500 0.2500 0.0 0 0 66.2782 121.2464" />
<path d="M205.7268 121.2464
L205.7268 118.9000
" />
<path d="M206.0768 121.5964
L208.8232 121.5964
" />
<path d="M208.8232 118.5500
L206.0768 118.5500
" />
<path d="M209.1732 118.9000
L209.1732 121.2464
" />
<path d="M206.0768 118.5500 A0.2500 0.2500 0.0 0 0 205.7268 118.9000" />
<path d="M205.7268 121.2464 A0.2500 0.2500 0.0 0 0 206.0768 121.5964" />
<path d="M209.1732 118.9000 A0.2500 0.2500 0.0 0 0 208.8232 118.5500" />
<path d="M208.8232 121.5964 A0.2500 0.2500 0.0 0 0 209.1732 121.2464" />
<path d="M198.5768 83.1464
L198.5768 80.8000
" />
<path d="M198.9268 83.4964
L201.6732 83.4964
" />
<path d="M201.6732 80.4500
L198.9268 80.4500
" />
<path d="M202.0232 80.8000
L202.0232 83.1464
" />
<path d="M198.9268 80.4500 A0.2500 0.2500 0.0 0 0 198.5768 80.8000" />
<path d="M198.5768 83.1464 A0.2500 0.2500 0.0 0 0 198.9268 83.4964" />
<path d="M202.0232 80.8000 A0.2500 0.2500 0.0 0 0 201.6732 80.4500" />
<path d="M201.6732 83.4964 A0.2500 0.2500 0.0 0 0 202.0232 83.1464" />
<path d="M93.8018 102.1982
L93.8018 99.8518
" />
<path d="M94.1518 102.5482
L96.8982 102.5482
" />
<path d="M96.8982 99.5018
L94.1518 99.5018
" />
<path d="M97.2482 102.1982
L97.2482 99.8518
" />
<path d="M94.1518 99.5018 A0.2500 0.2500 0.0 0 0 93.8018 99.8518" />
<path d="M93.8018 102.1982 A0.2500 0.2500 0.0 0 0 94.1518 102.5482" />
<path d="M97.2482 99.8518 A0.2500 0.2500 0.0 0 0 96.8982 99.5018" />
<path d="M96.8982 102.5482 A0.2500 0.2500 0.0 0 0 97.2482 102.1982" />
<path d="M89.0268 45.0464
L89.0268 42.7000
" />
<path d="M89.3768 45.3964
L92.1232 45.3964
" />
<path d="M92.1232 42.3500
L89.3768 42.3500
" />
<path d="M92.4732 42.7000
L92.4732 45.0464
" />
<path d="M89.3768 42.3500 A0.2500 0.2500 0.0 0 0 89.0268 42.7000" />
<path d="M89.0268 45.0464 A0.2500 0.2500 0.0 0 0 89.3768 45.3964" />
<path d="M92.4732 42.7000 A0.2500 0.2500 0.0 0 0 92.1232 42.3500" />
<path d="M92.1232 45.3964 A0.2500 0.2500 0.0 0 0 92.4732 45.0464" />
<path d="M19.9768 83.1464
L19.9768 80.8000
" />
<path d="M20.3268 83.4964
L23.0732 83.4964
" />
<path d="M23.0732 80.4500
L20.3268 80.4500
" />
<path d="M23.4232 80.8000
L23.4232 83.1464
" />
<path d="M20.3268 80.4500 A0.2500 0.2500 0.0 0 0 19.9768 80.8000" />
<path d="M19.9768 83.1464 A0.2500 0.2500 0.0 0 0 20.3268 83.4964" />
<path d="M23.4232 80.8000 A0.2500 0.2500 0.0 0 0 23.0732 80.4500" />
<path d="M23.0732 83.4964 A0.2500 0.2500 0.0 0 0 23.4232 83.1464" />
<path d="M65.2318 83.1464
L65.2318 80.8000
" />
<path d="M65.5818 83.4964
L68.3282 83.4964
" />
<path d="M68.3282 80.4500
L65.5818 80.4500
" />
<path d="M68.6782 80.8000
L68.6782 83.1464
" />
<path d="M65.5818 80.4500 A0.2500 0.2500 0.0 0 0 65.2318 80.8000" />
<path d="M65.2318 83.1464 A0.2500 0.2500 0.0 0 0 65.5818 83.4964" />
<path d="M68.6782 80.8000 A0.2500 0.2500 0.0 0 0 68.3282 80.4500" />
<path d="M68.3282 83.4964 A0.2500 0.2500 0.0 0 0 68.6782 83.1464" />
<path d="M222.3768 45.0464
L222.3768 42.7000
" />
<path d="M222.7268 45.3964
L225.4732 45.3964
" />
<path d="M225.4732 42.3500
L222.7268 42.3500
" />
<path d="M225.8232 42.7000
L225.8232 45.0464
" />
<path d="M222.7268 42.3500 A0.2500 0.2500 0.0 0 0 222.3768 42.7000" />
<path d="M222.3768 45.0464 A0.2500 0.2500 0.0 0 0 222.7268 45.3964" />
<path d="M225.8232 42.7000 A0.2500 0.2500 0.0 0 0 225.4732 42.3500" />
<path d="M225.4732 45.3964 A0.2500 0.2500 0.0 0 0 225.8232 45.0464" />
<path d="M307.5518 64.0982
L307.5518 61.7518
" />
<path d="M307.9018 64.4482
L310.6482 64.4482
" />
<path d="M310.6482 61.4018
L307.9018 61.4018
" />
<path d="M310.9982 64.0982
L310.9982 61.7518
" />
<path d="M307.9018 61.4018 A0.2500 0.2500 0.0 0 0 307.5518 61.7518" />
<path d="M307.5518 64.0982 A0.2500 0.2500 0.0 0 0 307.9018 64.4482" />
<path d="M310.9982 61.7518 A0.2500 0.2500 0.0 0 0 310.6482 61.4018" />
<path d="M310.6482 64.4482 A0.2500 0.2500 0.0 0 0 310.9982 64.0982" />
<path d="M165.2268 45.0464
L165.2268 42.7000
" />
<path d="M165.5768 45.3964
L168.3232 45.3964
" />
<path d="M168.3232 42.3500
L165.5768 42.3500
" />
<path d="M168.6732 42.7000
L168.6732 45.0464
" />
<path d="M165.5768 42.3500 A0.2500 0.2500 0.0 0 0 165.2268 42.7000" />
<path d="M165.2268 45.0464 A0.2500 0.2500 0.0 0 0 165.5768 45.3964" />
<path d="M168.6732 42.7000 A0.2500 0.2500 0.0 0 0 168.3232 42.3500" />
<path d="M168.3232 45.3964 A0.2500 0.2500 0.0 0 0 168.6732 45.0464" />
<path d="M193.8068 17.4682
L193.8068 15.1218
" />
<path d="M194.1568 17.8182
L196.9032 17.8182
" />
<path d="M196.9032 14.7718
L194.1568 14.7718
" />
<path d="M197.2532 17.4682
L197.2532 15.1218
" />
<path d="M194.1568 14.7718 A0.2500 0.2500 0.0 0 0 193.8068 15.1218" />
<path d="M193.8068 17.4682 A0.2500 0.2500 0.0 0 0 194.1568 17.8182" />
<path d="M197.2532 15.1218 A0.2500 0.2500 0.0 0 0 196.9032 14.7718" />
<path d="M196.9032 17.8182 A0.2500 0.2500 0.0 0 0 197.2532 17.4682" />
<path d="M160.4768 83.1464
L160.4768 80.8000
" />
<path d="M160.8268 83.4964
L163.5732 83.4964
" />
<path d="M163.5732 80.4500
L160.8268 80.4500
" />
<path d="M163.9232 80.8000
L163.9232 83.1464
" />
<path d="M160.8268 80.4500 A0.2500 0.2500 0.0 0 0 160.4768 80.8000" />
<path d="M160.4768 83.1464 A0.2500 0.2500 0.0 0 0 160.8268 83.4964" />
<path d="M163.9232 80.8000 A0.2500 0.2500 0.0 0 0 163.5732 80.4500" />
<path d="M163.5732 83.4964 A0.2500 0.2500 0.0 0 0 163.9232 83.1464" />
<path d="M141.4268 83.1464
L141.4268 80.8000
" />
<path d="M141.7768 83.4964
L144.5232 83.4964
" />
<path d="M144.5232 80.4500
L141.7768 80.4500
" />
<path d="M144.8732 80.8000
L144.8732 83.1464
" />
<path d="M141.7768 80.4500 A0.2500 0.2500 0.0 0 0 141.4268 80.8000" />
<path d="M141.4268 83.1464 A0.2500 0.2500 0.0 0 0 141.7768 83.4964" />
<path d="M144.8732 80.8000 A0.2500 0.2500 0.0 0 0 144.5232 80.4500" />
<path d="M144.5232 83.4964 A0.2500 0.2500 0.0 0 0 144.8732 83.1464" />
<path d="M179.5268 83.1464
L179.5268 80.8000
" />
<path d="M179.8768 83.4964
L182.6232 83.4964
" />
<path d="M182.6232 80.4500
L179.8768 80.4500
" />
<path d="M182.9732 80.8000
L182.9732 83.1464
" />
<path d="M179.8768 80.4500 A0.2500 0.2500 0.0 0 0 179.5268 80.8000" />
<path d="M179.5268 83.1464 A0.2500 0.2500 0.0 0 0 179.8768 83.4964" />
<path d="M182.9732 80.8000 A0.2500 0.2500 0.0 0 0 182.6232 80.4500" />
<path d="M182.6232 83.4964 A0.2500 0.2500 0.0 0 0 182.9732 83.1464" />
<path d="M41.4018 64.0982
L41.4018 61.7518
" />
<path d="M41.7518 64.4482
L44.4982 64.4482
" />
<path d="M44.4982 61.4018
L41.7518 61.4018
" />
<path d="M44.8482 64.0982
L44.8482 61.7518
" />
<path d="M41.7518 61.4018 A0.2500 0.2500 0.0 0 0 41.4018 61.7518" />
<path d="M41.4018 64.0982 A0.2500 0.2500 0.0 0 0 41.7518 64.4482" />
<path d="M44.8482 61.7518 A0.2500 0.2500 0.0 0 0 44.4982 61.4018" />
<path d="M44.4982 64.4482 A0.2500 0.2500 0.0 0 0 44.8482 64.0982" />
<path d="M184.2768 45.0464
L184.2768 42.7000
" />
<path d="M184.6268 45.3964
L187.3732 45.3964
" />
<path d="M187.3732 42.3500
L184.6268 42.3500
" />
<path d="M187.7232 42.7000
L187.7232 45.0464
" />
<path d="M184.6268 42.3500 A0.2500 0.2500 0.0 0 0 184.2768 42.7000" />
<path d="M184.2768 45.0464 A0.2500 0.2500 0.0 0 0 184.6268 45.3964" />
<path d="M187.7232 42.7000 A0.2500 0.2500 0.0 0 0 187.3732 42.3500" />
<path d="M187.3732 45.3964 A0.2500 0.2500 0.0 0 0 187.7232 45.0464" />
<path d="M250.9518 64.0982
L250.9518 61.7518
" />
<path d="M251.3018 64.4482
L254.0482 64.4482
" />
<path d="M254.0482 61.4018
L251.3018 61.4018
" />
<path d="M254.3982 64.0982
L254.3982 61.7518
" />
<path d="M251.3018 61.4018 A0.2500 0.2500 0.0 0 0 250.9518 61.7518" />
<path d="M250.9518 64.0982 A0.2500 0.2500 0.0 0 0 251.3018 64.4482" />
<path d="M254.3982 61.7518 A0.2500 0.2500 0.0 0 0 254.0482 61.4018" />
<path d="M254.0482 64.4482 A0.2500 0.2500 0.0 0 0 254.3982 64.0982" />
<path d="M279.5318 17.4732
L279.5318 15.1268
" />
<path d="M279.8818 17.8232
L282.6282 17.8232
" />
<path d="M282.6282 14.7768
L279.8818 14.7768
" />
<path d="M282.9782 17.4732
L282.9782 15.1268
" />
<path d="M279.8818 14.7768 A0.2500 0.2500 0.0 0 0 279.5318 15.1268" />
<path d="M279.5318 17.4732 A0.2500 0.2500 0.0 0 0 279.8818 17.8232" />
<path d="M282.9782 15.1268 A0.2500 0.2500 0.0 0 0 282.6282 14.7768" />
<path d="M282.6282 17.8232 A0.2500 0.2500 0.0 0 0 282.9782 17.4732" />
<path d="M174.7518 64.0982
L174.7518 61.7518
" />
<path d="M175.1018 64.4482
L177.8482 64.4482
" />
<path d="M177.8482 61.4018
L175.1018 61.4018
" />
<path d="M178.1982 64.0982
L178.1982 61.7518
" />
<path d="M175.1018 61.4018 A0.2500 0.2500 0.0 0 0 174.7518 61.7518" />
<path d="M174.7518 64.0982 A0.2500 0.2500 0.0 0 0 175.1018 64.4482" />
<path d="M178.1982 61.7518 A0.2500 0.2500 0.0 0 0 177.8482 61.4018" />
<path d="M177.8482 64.4482 A0.2500 0.2500 0.0 0 0 178.1982 64.0982" />
<path d="M345.6568 45.0464
L345.6568 42.7000
" />
<path d="M346.0068 45.3964
L348.7532 45.3964
" />
<path d="M348.7532 42.3500
L346.0068 42.3500
" />
<path d="M349.1032 42.7000
L349.1032 45.0464
" />
<path d="M346.0068 42.3500 A0.2500 0.2500 0.0 0 0 345.6568 42.7000" />
<path d="M345.6568 45.0464 A0.2500 0.2500 0.0 0 0 346.0068 45.3964" />
<path d="M349.1032 42.7000 A0.2500 0.2500 0.0 0 0 348.7532 42.3500" />
<path d="M348.7532 45.3964 A0.2500 0.2500 0.0 0 0 349.1032 45.0464" />
<path d="M146.1768 45.0464
L146.1768 42.7000
" />
<path d="M146.5268 45.3964
L149.2732 45.3964
" />
<path d="M149.2732 42.3500
L146.5268 42.3500
" />
<path d="M149.6232 42.7000
L149.6232 45.0464
" />
<path d="M146.5268 42.3500 A0.2500 0.2500 0.0 0 0 146.1768 42.7000" />
<path d="M146.1768 45.0464 A0.2500 0.2500 0.0 0 0 146.5268 45.3964" />
<path d="M149.6232 42.7000 A0.2500 0.2500 0.0 0 0 149.2732 42.3500" />
<path d="M149.2732 45.3964 A0.2500 0.2500 0.0 0 0 149.6232 45.0464" />
<path d="M84.2768 83.1464
L84.2768 80.8000
" />
<path d="M84.6268 83.4964
L87.3732 83.4964
" />
<path d="M87.3732 80.4500
L84.6268 80.4500
" />
<path d="M87.7232 80.8000
L87.7232 83.1464
" />
<path d="M84.6268 80.4500 A0.2500 0.2500 0.0 0 0 84.2768 80.8000" />
<path d="M84.2768 83.1464 A0.2500 0.2500 0.0 0 0 84.6268 83.4964" />
<path d="M87.7232 80.8000 A0.2500 0.2500 0.0 0 0 87.3732 80.4500" />
<path d="M87.3732 83.4964 A0.2500 0.2500 0.0 0 0 87.7232 83.1464" />
<path d="M112.8518 102.1982
L112.8518 99.8518
" />
<path d="M113.2018 102.5482
L115.9482 102.5482
" />
<path d="M115.9482 99.5018
L113.2018 99.5018
" />
<path d="M116.2982 102.1982
L116.2982 99.8518
" />
<path d="M113.2018 99.5018 A0.2500 0.2500 0.0 0 0 112.8518 99.8518" />
<path d="M112.8518 102.1982 A0.2500 0.2500 0.0 0 0 113.2018 102.5482" />
<path d="M116.2982 99.8518 A0.2500 0.2500 0.0 0 0 115.9482 99.5018" />
<path d="M115.9482 102.5482 A0.2500 0.2500 0.0 0 0 116.2982 102.1982" />
</g>
<g style="fill:none; 
stroke:#D0D2CD; stroke-width:0.1000; stroke-opacity:1; 
stroke-linecap:round; stroke-linejoin:round;">
<path d="M72.7500 6.8000 A1.6500 1.6500 0.0 0 0 74.4000 5.1500" />
<path d="M22.7500 6.8000 A1.6500 1.6500 0.0 0 0 24.4000 5.1500" />
<path d="M237.4000 5.1500 A2.7500 2.7500 0.0 0 0 231.9000 5.1500" />
<path d="M231.9000 141.3250 A2.7500 2.7500 0.0 0 0 237.4000 141.3250" />
<path d="M81.5500 6.8000
L230.2500 6.8000
" />
<path d="M0.0750 137.6750
L0.0750 8.8000
" />
<path d="M294.9000 5.1500 A1.6500 1.6500 0.0 0 0 296.5500 6.8000" />
<path d="M24.4000 141.3250 A2.7500 2.7500 0.0 0 0 29.9000 141.3250" />
<path d="M29.9000 5.1500 A1.6500 1.6500 0.0 0 0 31.5500 6.8000" />
<path d="M2.0750 6.8000 A2.0000 2.0000 0.0 0 0 0.0750 8.8000" />
<path d="M239.0500 139.6750
L287.7552 139.6750
" />
<path d="M359.9250 139.6750 A2.0000 2.0000 0.0 0 0 361.9250 137.6750" />
<path d="M237.4000 5.1500 A1.6500 1.6500 0.0 0 0 239.0500 6.8000" />
<path d="M359.9250 6.8000
L296.5500 6.8000
" />
<path d="M24.4000 141.3250 A1.6500 1.6500 0.0 0 0 22.7500 139.6750" />
<path d="M31.5500 6.8000
L72.7500 6.8000
" />
<path d="M2.0750 6.8000
L22.7500 6.8000
" />
<path d="M31.5500 139.6750
L72.7500 139.6750
" />
<path d="M294.9000 5.1500 A2.7500 2.7500 0.0 0 0 289.4000 5.1500" />
<path d="M81.5500 139.6750 A1.6500 1.6500 0.0 0 0 79.9000 141.3250" />
<path d="M29.9000 5.1500 A2.7500 2.7500 0.0 0 0 24.4000 5.1500" />
<path d="M287.7500 6.8000 A1.6500 1.6500 0.0 0 0 289.4000 5.1500" />
<path d="M2.0750 139.6750
L22.7500 139.6750
" />
<path d="M239.0500 6.8000
L287.7500 6.8000
" />
<path d="M289.4000 141.3250 A2.7500 2.7500 0.0 0 0 294.9000 141.3250" />
<path d="M361.9250 8.8000 A2.0000 2.0000 0.0 0 0 359.9250 6.8000" />
<path d="M79.9000 5.1500 A2.7500 2.7500 0.0 0 0 74.4000 5.1500" />
<path d="M74.4000 141.3250 A2.7500 2.7500 0.0 0 0 79.9000 141.3250" />
<path d="M81.5500 139.6750
L230.2500 139.6750
" />
<path d="M361.9250 8.8000
L361.9250 137.6750
" />
<path d="M289.4000 141.3250 A1.6448 1.6448 0.0 0 0 287.7552 139.6750" />
<path d="M296.5500 139.6750
L359.9250 139.6750
" />
<path d="M296.5500 139.6750 A1.6500 1.6500 0.0 0 0 294.9000 141.3250" />
<path d="M0.0750 137.6750 A2.0000 2.0000 0.0 0 0 2.0750 139.6750" />
<path d="M231.9000 141.3250 A1.6500 1.6500 0.0 0 0 230.2500 139.6750" />
<path d="M230.2500 6.8000 A1.6500 1.6500 0.0 0 0 231.9000 5.1500" />
<path d="M31.5500 139.6750 A1.6500 1.6500 0.0 0 0 29.9000 141.3250" />
<path d="M79.9000 5.1500 A1.6500 1.6500 0.0 0 0 81.5500 6.8000" />
<path d="M239.0500 139.6750 A1.6500 1.6500 0.0 0 0 237.4000 141.3250" />
<path d="M74.4000 141.3250 A1.6500 1.6500 0.0 0 0 72.7500 139.6750" />
<path d="M15.2268 121.2464
L15.2268 118.9000
" />
<path d="M15.5768 121.5964
L18.3232 121.5964
" />
<path d="M18.3232 118.5500
L15.5768 118.5500
" />
<path d="M18.6732 118.9000
L18.6732 121.2464
" />
<path d="M15.5768 118.5500 A0.2500 0.2500 0.0 0 0 15.2268 118.9000" />
<path d="M15.2268 121.2464 A0.2500 0.2500 0.0 0 0 15.5768 121.5964" />
<path d="M18.6732 118.9000 A0.2500 0.2500 0.0 0 0 18.3232 118.5500" />
<path d="M18.3232 121.5964 A0.2500 0.2500 0.0 0 0 18.6732 121.2464" />
<path d="M307.5768 121.2464
L307.5768 118.9000
" />
<path d="M307.9268 121.5964
L310.6732 121.5964
" />
<path d="M310.6732 118.5500
L307.9268 118.5500
" />
<path d="M311.0232 118.9000
L311.0232 121.2464
" />
<path d="M307.9268 118.5500 A0.2500 0.2500 0.0 0 0 307.5768 118.9000" />
<path d="M307.5768 121.2464 A0.2500 0.2500 0.0 0 0 307.9268 121.5964" />
<path d="M311.0232 118.9000 A0.2500 0.2500 0.0 0 0 310.6732 118.5500" />
<path d="M310.6732 121.5964 A0.2500 0.2500 0.0 0 0 311.0232 121.2464" />
<path d="M136.6518 17.4732
L136.6518 15.1268
" />
<path d="M137.0018 17.8232
L139.7482 17.8232
" />
<path d="M139.7482 14.7768
L137.0018 14.7768
" />
<path d="M140.0982 17.4732
L140.0982 15.1268
" />
<path d="M137.0018 14.7768 A0.2500 0.2500 0.0 0 0 136.6518 15.1268" />
<path d="M136.6518 17.4732 A0.2500 0.2500 0.0 0 0 137.0018 17.8232" />
<path d="M140.0982 15.1268 A0.2500 0.2500 0.0 0 0 139.7482 14.7768" />
<path d="M139.7482 17.8232 A0.2500 0.2500 0.0 0 0 140.0982 17.4732" />
<path d="M50.9268 17.4732
L50.9268 15.1268
" />
<path d="M51.2768 17.8232
L54.0232 17.8232
" />
<path d="M54.0232 14.7768
L51.2768 14.7768
" />
<path d="M54.3732 17.4732
L54.3732 15.1268
" />
<path d="M51.2768 14.7768 A0.2500 0.2500 0.0 0 0 50.9268 15.1268" />
<path d="M50.9268 17.4732 A0.2500 0.2500 0.0 0 0 51.2768 17.8232" />
<path d="M54.3732 15.1268 A0.2500 0.2500 0.0 0 0 54.0232 14.7768" />
<path d="M54.0232 17.8232 A0.2500 0.2500 0.0 0 0 54.3732 17.4732" />
<path d="M277.1768 121.2464
L277.1768 118.9000
" />
<path d="M277.5268 121.5964
L280.2732 121.5964
" />
<path d="M280.2732 118.5500
L277.5268 118.5500
" />
<path d="M280.6232 118.9000
L280.6232 121.2464
" />
<path d="M277.5268 118.5500 A0.2500 0.2500 0.0 0 0 277.1768 118.9000" />
<path d="M277.1768 121.2464 A0.2500 0.2500 0.0 0 0 277.5268 121.5964" />
<path d="M280.6232 118.9000 A0.2500 0.2500 0.0 0 0 280.2732 118.5500" />
<path d="M280.2732 121.5964 A0.2500 0.2500 0.0 0 0 280.6232 121.2464" />
<path d="M134.2568 121.2464
L134.2568 118.9000
" />
<path d="M134.6068 121.5964
L137.3532 121.5964
" />
<path d="M137.3532 118.5500
L134.6068 118.5500
" />
<path d="M137.7032 118.9000
L137.7032 121.2464
" />
<path d="M134.6068 118.5500 A0.2500 0.2500 0.0 0 0 134.2568 118.9000" />
<path d="M134.2568 121.2464 A0.2500 0.2500 0.0 0 0 134.6068 121.5964" />
<path d="M137.7032 118.9000 A0.2500 0.2500 0.0 0 0 137.3532 118.5500" />
<path d="M137.3532 121.5964 A0.2500 0.2500 0.0 0 0 137.7032 121.2464" />
<path d="M345.6768 121.2464
L345.6768 118.9000
" />
<path d="M346.0268 121.5964
L348.7732 121.5964
" />
<path d="M348.7732 118.5500
L346.0268 118.5500
" />
<path d="M349.1232 118.9000
L349.1232 121.2464
" />
<path d="M346.0268 118.5500 A0.2500 0.2500 0.0 0 0 345.6768 118.9000" />
<path d="M345.6768 121.2464 A0.2500 0.2500 0.0 0 0 346.0268 121.5964" />
<path d="M349.1232 118.9000 A0.2500 0.2500 0.0 0 0 348.7732 118.5500" />
<path d="M348.7732 121.5964 A0.2500 0.2500 0.0 0 0 349.1232 121.2464" />
<path d="M150.9518 102.1982
L150.9518 99.8518
" />
<path d="M151.3018 102.5482
L154.0482 102.5482
" />
<path d="M154.0482 99.5018
L151.3018 99.5018
" />
<path d="M154.3982 102.1982
L154.3982 99.8518
" />
<path d="M151.3018 99.5018 A0.2500 0.2500 0.0 0 0 150.9518 99.8518" />
<path d="M150.9518 102.1982 A0.2500 0.2500 0.0 0 0 151.3018 102.5482" />
<path d="M154.3982 99.8518 A0.2500 0.2500 0.0 0 0 154.0482 99.5018" />
<path d="M154.0482 102.5482 A0.2500 0.2500 0.0 0 0 154.3982 102.1982" />
<path d="M227.1518 102.1982
L227.1518 99.8518
" />
<path d="M227.5018 102.5482
L230.2482 102.5482
" />
<path d="M230.2482 99.5018
L227.5018 99.5018
" />
<path d="M230.5982 102.1982
L230.5982 99.8518
" />
<path d="M227.5018 99.5018 A0.2500 0.2500 0.0 0 0 227.1518 99.8518" />
<path d="M227.1518 102.1982 A0.2500 0.2500 0.0 0 0 227.5018 102.5482" />
<path d="M230.5982 99.8518 A0.2500 0.2500 0.0 0 0 230.2482 99.5018" />
<path d="M230.2482 102.5482 A0.2500 0.2500 0.0 0 0 230.5982 102.1982" />
<path d="M108.0668 17.4682
L108.0668 15.1218
" />
<path d="M108.4168 17.8182
L111.1632 17.8182
" />
<path d="M111.1632 14.7718
L108.4168 14.7718
" />
<path d="M111.5132 17.4682
L111.5132 15.1218
" />
<path d="M108.4168 14.7718 A0.2500 0.2500 0.0 0 0 108.0668 15.1218" />
<path d="M108.0668 17.4682 A0.2500 0.2500 0.0 0 0 108.4168 17.8182" />
<path d="M111.5132 15.1218 A0.2500 0.2500 0.0 0 0 111.1632 14.7718" />
<path d="M111.1632 17.8182 A0.2500 0.2500 0.0 0 0 111.5132 17.4682" />
<path d="M39.0318 121.2464
L39.0318 118.9000
" />
<path d="M39.3818 121.5964
L42.1282 121.5964
" />
<path d="M42.1282 118.5500
L39.3818 118.5500
" />
<path d="M42.4782 118.9000
L42.4782 121.2464
" />
<path d="M39.3818 118.5500 A0.2500 0.2500 0.0 0 0 39.0318 118.9000" />
<path d="M39.0318 121.2464 A0.2500 0.2500 0.0 0 0 39.3818 121.5964" />
<path d="M42.4782 118.9000 A0.2500 0.2500 0.0 0 0 42.1282 118.5500" />
<path d="M42.1282 121.5964 A0.2500 0.2500 0.0 0 0 42.4782 121.2464" />
<path d="M74.7518 102.1982
L74.7518 99.8518
" />
<path d="M75.1018 102.5482
L77.8482 102.5482
" />
<path d="M77.8482 99.5018
L75.1018 99.5018
" />
<path d="M78.1982 102.1982
L78.1982 99.8518
" />
<path d="M75.1018 99.5018 A0.2500 0.2500 0.0 0 0 74.7518 99.8518" />
<path d="M74.7518 102.1982 A0.2500 0.2500 0.0 0 0 75.1018 102.5482" />
<path d="M78.1982 99.8518 A0.2500 0.2500 0.0 0 0 77.8482 99.5018" />
<path d="M77.8482 102.5482 A0.2500 0.2500 0.0 0 0 78.1982 102.1982" />
<path d="M108.0768 45.0464
L108.0768 42.7000
" />
<path d="M108.4268 45.3964
L111.1732 45.3964
" />
<path d="M111.1732 42.3500
L108.4268 42.3500
" />
<path d="M111.5232 42.7000
L111.5232 45.0464
" />
<path d="M108.4268 42.3500 A0.2500 0.2500 0.0 0 0 108.0768 42.7000" />
<path d="M108.0768 45.0464 A0.2500 0.2500 0.0 0 0 108.4268 45.3964" />
<path d="M111.5232 42.7000 A0.2500 0.2500 0.0 0 0 111.1732 42.3500" />
<path d="M111.1732 45.3964 A0.2500 0.2500 0.0 0 0 111.5232 45.0464" />
<path d="M98.5518 64.0982
L98.5518 61.7518
" />
<path d="M98.9018 64.4482
L101.6482 64.4482
" />
<path d="M101.6482 61.4018
L98.9018 61.4018
" />
<path d="M101.9982 64.0982
L101.9982 61.7518
" />
<path d="M98.9018 61.4018 A0.2500 0.2500 0.0 0 0 98.5518 61.7518" />
<path d="M98.5518 64.0982 A0.2500 0.2500 0.0 0 0 98.9018 64.4482" />
<path d="M101.9982 61.7518 A0.2500 0.2500 0.0 0 0 101.6482 61.4018" />
<path d="M101.6482 64.4482 A0.2500 0.2500 0.0 0 0 101.9982 64.0982" />
<path d="M231.9018 64.0982
L231.9018 61.7518
" />
<path d="M232.2518 64.4482
L234.9982 64.4482
" />
<path d="M234.9982 61.4018
L232.2518 61.4018
" />
<path d="M235.3482 64.0982
L235.3482 61.7518
" />
<path d="M232.2518 61.4018 A0.2500 0.2500 0.0 0 0 231.9018 61.7518" />
<path d="M231.9018 64.0982 A0.2500 0.2500 0.0 0 0 232.2518 64.4482" />
<path d="M235.3482 61.7518 A0.2500 0.2500 0.0 0 0 234.9982 61.4018" />
<path d="M234.9982 64.4482 A0.2500 0.2500 0.0 0 0 235.3482 64.0982" />
<path d="M277.1518 73.6232
L277.1518 71.2768
" />
<path d="M277.5018 73.9732
L280.2482 73.9732
" />
<path d="M280.2482 70.9268
L277.5018 70.9268
" />
<path d="M280.5982 73.6232
L280.5982 71.2768
" />
<path d="M277.5018 70.9268 A0.2500 0.2500 0.0 0 0 277.1518 71.2768" />
<path d="M277.1518 73.6232 A0.2500 0.2500 0.0 0 0 277.5018 73.9732" />
<path d="M280.5982 71.2768 A0.2500 0.2500 0.0 0 0 280.2482 70.9268" />
<path d="M280.2482 73.9732 A0.2500 0.2500 0.0 0 0 280.5982 73.6232" />
<path d="M270.0068 45.0464
L270.0068 42.7000
" />
<path d="M270.3568 45.3964
L273.1032 45.3964
" />
<path d="M273.1032 42.3500
L270.3568 42.3500
" />
<path d="M273.4532 42.7000
L273.4532 45.0464
" />
<path d="M270.3568 42.3500 A0.2500 0.2500 0.0 0 0 270.0068 42.7000" />
<path d="M270.0068 45.0464 A0.2500 0.2500 0.0 0 0 270.3568 45.3964" />
<path d="M273.4532 42.7000 A0.2500 0.2500 0.0 0 0 273.1032 42.3500" />
<path d="M273.1032 45.3964 A0.2500 0.2500 0.0 0 0 273.4532 45.0464" />
<path d="M241.4268 17.4732
L241.4268 15.1268
" />
<path d="M241.7768 17.8232
L244.5232 17.8232
" />
<path d="M244.5232 14.7768
L241.7768 14.7768
" />
<path d="M244.8732 17.4732
L244.8732 15.1268
" />
<path d="M241.7768 14.7768 A0.2500 0.2500 0.0 0 0 241.4268 15.1268" />
<path d="M241.4268 17.4732 A0.2500 0.2500 0.0 0 0 241.7768 17.8232" />
<path d="M244.8732 15.1268 A0.2500 0.2500 0.0 0 0 244.5232 14.7768" />
<path d="M244.5232 17.8232 A0.2500 0.2500 0.0 0 0 244.8732 17.4732" />
<path d="M12.8268 17.4732
L12.8268 15.1268
" />
<path d="M13.1768 17.8232
L15.9232 17.8232
" />
<path d="M15.9232 14.7768
L13.1768 14.7768
" />
<path d="M16.2732 17.4732
L16.2732 15.1268
" />
<path d="M13.1768 14.7768 A0.2500 0.2500 0.0 0 0 12.8268 15.1268" />
<path d="M12.8268 17.4732 A0.2500 0.2500 0.0 0 0 13.1768 17.8232" />
<path d="M16.2732 15.1268 A0.2500 0.2500 0.0 0 0 15.9232 14.7768" />
<path d="M15.9232 17.8232 A0.2500 0.2500 0.0 0 0 16.2732 17.4732" />
<path d="M307.5518 45.0464
L307.5518 42.7000
" />
<path d="M307.9018 45.3964
L310.6482 45.3964
" />
<path d="M310.6482 42.3500
L307.9018 42.3500
" />
<path d="M310.9982 42.7000
L310.9982 45.0464
" />
<path d="M307.9018 42.3500 A0.2500 0.2500 0.0 0 0 307.5518 42.7000" />
<path d="M307.5518 45.0464 A0.2500 0.2500 0.0 0 0 307.9018 45.3964" />
<path d="M310.9982 42.7000 A0.2500 0.2500 0.0 0 0 310.6482 42.3500" />
<path d="M310.6482 45.3964 A0.2500 0.2500 0.0 0 0 310.9982 45.0464" />
<path d="M326.6018 64.0982
L326.6018 61.7518
" />
<path d="M326.9518 64.4482
L329.6982 64.4482
" />
<path d="M329.6982 61.4018
L326.9518 61.4018
" />
<path d="M330.0482 64.0982
L330.0482 61.7518
" />
<path d="M326.9518 61.4018 A0.2500 0.2500 0.0 0 0 326.6018 61.7518" />
<path d="M326.6018 64.0982 A0.2500 0.2500 0.0 0 0 326.9518 64.4482" />
<path d="M330.0482 61.7518 A0.2500 0.2500 0.0 0 0 329.6982 61.4018" />
<path d="M329.6982 64.4482 A0.2500 0.2500 0.0 0 0 330.0482 64.0982" />
<path d="M326.6018 45.0464
L326.6018 42.7000
" />
<path d="M326.9518 45.3964
L329.6982 45.3964
" />
<path d="M329.6982 42.3500
L326.9518 42.3500
" />
<path d="M330.0482 42.7000
L330.0482 45.0464
" />
<path d="M326.9518 42.3500 A0.2500 0.2500 0.0 0 0 326.6018 42.7000" />
<path d="M326.6018 45.0464 A0.2500 0.2500 0.0 0 0 326.9518 45.3964" />
<path d="M330.0482 42.7000 A0.2500 0.2500 0.0 0 0 329.6982 42.3500" />
<path d="M329.6982 45.3964 A0.2500 0.2500 0.0 0 0 330.0482 45.0464" />
<path d="M241.4268 45.0464
L241.4268 42.7000
" />
<path d="M241.7768 45.3964
L244.5232 45.3964
" />
<path d="M244.5232 42.3500
L241.7768 42.3500
" />
<path d="M244.8732 42.7000
L244.8732 45.0464
" />
<path d="M241.7768 42.3500 A0.2500 0.2500 0.0 0 0 241.4268 42.7000" />
<path d="M241.4268 45.0464 A0.2500 0.2500 0.0 0 0 241.7768 45.3964" />
<path d="M244.8732 42.7000 A0.2500 0.2500 0.0 0 0 244.5232 42.3500" />
<path d="M244.5232 45.3964 A0.2500 0.2500 0.0 0 0 244.8732 45.0464" />
<path d="M17.5818 64.0932
L17.5818 61.7468
" />
<path d="M17.9318 64.4432
L20.6782 64.4432
" />
<path d="M20.6782 61.3968
L17.9318 61.3968
" />
<path d="M21.0282 64.0932
L21.0282 61.7468
" />
<path d="M17.9318 61.3968 A0.2500 0.2500 0.0 0 0 17.5818 61.7468" />
<path d="M17.5818 64.0932 A0.2500 0.2500 0.0 0 0 17.9318 64.4432" />
<path d="M21.0282 61.7468 A0.2500 0.2500 0.0 0 0 20.6782 61.3968" />
<path d="M20.6782 64.4432 A0.2500 0.2500 0.0 0 0 21.0282 64.0932" />
<path d="M255.7268 83.1464
L255.7268 80.8000
" />
<path d="M256.0768 83.4964
L258.8232 83.4964
" />
<path d="M258.8232 80.4500
L256.0768 80.4500
" />
<path d="M259.1732 80.8000
L259.1732 83.1464
" />
<path d="M256.0768 80.4500 A0.2500 0.2500 0.0 0 0 255.7268 80.8000" />
<path d="M255.7268 83.1464 A0.2500 0.2500 0.0 0 0 256.0768 83.4964" />
<path d="M259.1732 80.8000 A0.2500 0.2500 0.0 0 0 258.8232 80.4500" />
<path d="M258.8232 83.4964 A0.2500 0.2500 0.0 0 0 259.1732 83.1464" />
<path d="M345.6518 64.0982
L345.6518 61.7518
" />
<path d="M346.0018 64.4482
L348.7482 64.4482
" />
<path d="M348.7482 61.4018
L346.0018 61.4018
" />
<path d="M349.0982 64.0982
L349.0982 61.7518
" />
<path d="M346.0018 61.4018 A0.2500 0.2500 0.0 0 0 345.6518 61.7518" />
<path d="M345.6518 64.0982 A0.2500 0.2500 0.0 0 0 346.0018 64.4482" />
<path d="M349.0982 61.7518 A0.2500 0.2500 0.0 0 0 348.7482 61.4018" />
<path d="M348.7482 64.4482 A0.2500 0.2500 0.0 0 0 349.0982 64.0982" />
<path d="M193.8018 64.0982
L193.8018 61.7518
" />
<path d="M194.1518 64.4482
L196.8982 64.4482
" />
<path d="M196.8982 61.4018
L194.1518 61.4018
" />
<path d="M197.2482 64.0982
L197.2482 61.7518
" />
<path d="M194.1518 61.4018 A0.2500 0.2500 0.0 0 0 193.8018 61.7518" />
<path d="M193.8018 64.0982 A0.2500 0.2500 0.0 0 0 194.1518 64.4482" />
<path d="M197.2482 61.7518 A0.2500 0.2500 0.0 0 0 196.8982 61.4018" />
<path d="M196.8982 64.4482 A0.2500 0.2500 0.0 0 0 197.2482 64.0982" />
<path d="M212.8518 64.0982
L212.8518 61.7518
" />
<path d="M213.2018 64.4482
L215.9482 64.4482
" />
<path d="M215.9482 61.4018
L213.2018 61.4018
" />
<path d="M216.2982 64.0982
L216.2982 61.7518
" />
<path d="M213.2018 61.4018 A0.2500 0.2500 0.0 0 0 212.8518 61.7518" />
<path d="M212.8518 64.0982 A0.2500 0.2500 0.0 0 0 213.2018 64.4482" />
<path d="M216.2982 61.7518 A0.2500 0.2500 0.0 0 0 215.9482 61.4018" />
<path d="M215.9482 64.4482 A0.2500 0.2500 0.0 0 0 216.2982 64.0982" />
<path d="M69.9768 17.4732
L69.9768 15.1268
" />
<path d="M70.3268 17.8232
L73.0732 17.8232
" />
<path d="M73.0732 14.7768
L70.3268 14.7768
" />
<path d="M73.4232 17.4732
L73.4232 15.1268
" />
<path d="M70.3268 14.7768 A0.2500 0.2500 0.0 0 0 69.9768 15.1268" />
<path d="M69.9768 17.4732 A0.2500 0.2500 0.0 0 0 70.3268 17.8232" />
<path d="M73.4232 15.1268 A0.2500 0.2500 0.0 0 0 73.0732 14.7768" />
<path d="M73.0732 17.8232 A0.2500 0.2500 0.0 0 0 73.4232 17.4732" />
<path d="M31.8768 45.0464
L31.8768 42.7000
" />
<path d="M32.2268 45.3964
L34.9732 45.3964
" />
<path d="M34.9732 42.3500
L32.2268 42.3500
" />
<path d="M35.3232 42.7000
L35.3232 45.0464
" />
<path d="M32.2268 42.3500 A0.2500 0.2500 0.0 0 0 31.8768 42.7000" />
<path d="M31.8768 45.0464 A0.2500 0.2500 0.0 0 0 32.2268 45.3964" />
<path d="M35.3232 42.7000 A0.2500 0.2500 0.0 0 0 34.9732 42.3500" />
<path d="M34.9732 45.3964 A0.2500 0.2500 0.0 0 0 35.3232 45.0464" />
<path d="M89.0268 17.4732
L89.0268 15.1268
" />
<path d="M89.3768 17.8232
L92.1232 17.8232
" />
<path d="M92.1232 14.7768
L89.3768 14.7768
" />
<path d="M92.4732 17.4732
L92.4732 15.1268
" />
<path d="M89.3768 14.7768 A0.2500 0.2500 0.0 0 0 89.0268 15.1268" />
<path d="M89.0268 17.4732 A0.2500 0.2500 0.0 0 0 89.3768 17.8232" />
<path d="M92.4732 15.1268 A0.2500 0.2500 0.0 0 0 92.1232 14.7768" />
<path d="M92.1232 17.8232 A0.2500 0.2500 0.0 0 0 92.4732 17.4732" />
<path d="M103.3268 83.1464
L103.3268 80.8000
" />
<path d="M103.6768 83.4964
L106.4232 83.4964
" />
<path d="M106.4232 80.4500
L103.6768 80.4500
" />
<path d="M106.7732 80.8000
L106.7732 83.1464
" />
<path d="M103.6768 80.4500 A0.2500 0.2500 0.0 0 0 103.3268 80.8000" />
<path d="M103.3268 83.1464 A0.2500 0.2500 0.0 0 0 103.6768 83.4964" />
<path d="M106.7732 80.8000 A0.2500 0.2500 0.0 0 0 106.4232 80.4500" />
<path d="M106.4232 83.4964 A0.2500 0.2500 0.0 0 0 106.7732 83.1464" />
<path d="M222.3768 17.4732
L222.3768 15.1268
" />
<path d="M222.7268 17.8232
L225.4732 17.8232
" />
<path d="M225.4732 14.7768
L222.7268 14.7768
" />
<path d="M225.8232 17.4732
L225.8232 15.1268
" />
<path d="M222.7268 14.7768 A0.2500 0.2500 0.0 0 0 222.3768 15.1268" />
<path d="M222.3768 17.4732 A0.2500 0.2500 0.0 0 0 222.7268 17.8232" />
<path d="M225.8232 15.1268 A0.2500 0.2500 0.0 0 0 225.4732 14.7768" />
<path d="M225.4732 17.8232 A0.2500 0.2500 0.0 0 0 225.8232 17.4732" />
<path d="M117.6018 64.0982
L117.6018 61.7518
" />
<path d="M117.9518 64.4482
L120.6982 64.4482
" />
<path d="M120.6982 61.4018
L117.9518 61.4018
" />
<path d="M121.0482 64.0982
L121.0482 61.7518
" />
<path d="M117.9518 61.4018 A0.2500 0.2500 0.0 0 0 117.6018 61.7518" />
<path d="M117.6018 64.0982 A0.2500 0.2500 0.0 0 0 117.9518 64.4482" />
<path d="M121.0482 61.7518 A0.2500 0.2500 0.0 0 0 120.6982 61.4018" />
<path d="M120.6982 64.4482 A0.2500 0.2500 0.0 0 0 121.0482 64.0982" />
<path d="M326.6268 121.2464
L326.6268 118.9000
" />
<path d="M326.9768 121.5964
L329.7232 121.5964
" />
<path d="M329.7232 118.5500
L326.9768 118.5500
" />
<path d="M330.0732 118.9000
L330.0732 121.2464
" />
<path d="M326.9768 118.5500 A0.2500 0.2500 0.0 0 0 326.6268 118.9000" />
<path d="M326.6268 121.2464 A0.2500 0.2500 0.0 0 0 326.9768 121.5964" />
<path d="M330.0732 118.9000 A0.2500 0.2500 0.0 0 0 329.7232 118.5500" />
<path d="M329.7232 121.5964 A0.2500 0.2500 0.0 0 0 330.0732 121.2464" />
<path d="M131.9018 102.1982
L131.9018 99.8518
" />
<path d="M132.2518 102.5482
L134.9982 102.5482
" />
<path d="M134.9982 99.5018
L132.2518 99.5018
" />
<path d="M135.3482 102.1982
L135.3482 99.8518
" />
<path d="M132.2518 99.5018 A0.2500 0.2500 0.0 0 0 131.9018 99.8518" />
<path d="M131.9018 102.1982 A0.2500 0.2500 0.0 0 0 132.2518 102.5482" />
<path d="M135.3482 99.8518 A0.2500 0.2500 0.0 0 0 134.9982 99.5018" />
<path d="M134.9982 102.5482 A0.2500 0.2500 0.0 0 0 135.3482 102.1982" />
<path d="M79.5018 64.0982
L79.5018 61.7518
" />
<path d="M79.8518 64.4482
L82.5982 64.4482
" />
<path d="M82.5982 61.4018
L79.8518 61.4018
" />
<path d="M82.9482 64.0982
L82.9482 61.7518
" />
<path d="M79.8518 61.4018 A0.2500 0.2500 0.0 0 0 79.5018 61.7518" />
<path d="M79.5018 64.0982 A0.2500 0.2500 0.0 0 0 79.8518 64.4482" />
<path d="M82.9482 61.7518 A0.2500 0.2500 0.0 0 0 82.5982 61.4018" />
<path d="M82.5982 64.4482 A0.2500 0.2500 0.0 0 0 82.9482 64.0982" />
<path d="M253.3518 121.2464
L253.3518 118.9000
" />
<path d="M253.7018 121.5964
L256.4482 121.5964
" />
<path d="M256.4482 118.5500
L253.7018 118.5500
" />
<path d="M256.7982 118.9000
L256.7982 121.2464
" />
<path d="M253.7018 118.5500 A0.2500 0.2500 0.0 0 0 253.3518 118.9000" />
<path d="M253.3518 121.2464 A0.2500 0.2500 0.0 0 0 253.7018 121.5964" />
<path d="M256.7982 118.9000 A0.2500 0.2500 0.0 0 0 256.4482 118.5500" />
<path d="M256.4482 121.5964 A0.2500 0.2500 0.0 0 0 256.7982 121.2464" />
<path d="M229.5268 121.2464
L229.5268 118.9000
" />
<path d="M229.8768 121.5964
L232.6232 121.5964
" />
<path d="M232.6232 118.5500
L229.8768 118.5500
" />
<path d="M232.9732 118.9000
L232.9732 121.2464
" />
<path d="M229.8768 118.5500 A0.2500 0.2500 0.0 0 0 229.5268 118.9000" />
<path d="M229.5268 121.2464 A0.2500 0.2500 0.0 0 0 229.8768 121.5964" />
<path d="M232.9732 118.9000 A0.2500 0.2500 0.0 0 0 232.6232 118.5500" />
<path d="M232.6232 121.5964 A0.2500 0.2500 0.0 0 0 232.9732 121.2464" />
<path d="M155.7068 17.4732
L155.7068 15.1268
" />
<path d="M156.0568 17.8232
L158.8032 17.8232
" />
<path d="M158.8032 14.7768
L156.0568 14.7768
" />
<path d="M159.1532 17.4732
L159.1532 15.1268
" />
<path d="M156.0568 14.7768 A0.2500 0.2500 0.0 0 0 155.7068 15.1268" />
<path d="M155.7068 17.4732 A0.2500 0.2500 0.0 0 0 156.0568 17.8232" />
<path d="M159.1532 15.1268 A0.2500 0.2500 0.0 0 0 158.8032 14.7768" />
<path d="M158.8032 17.8232 A0.2500 0.2500 0.0 0 0 159.1532 17.4732" />
<path d="M127.1268 45.0464
L127.1268 42.7000
" />
<path d="M127.4768 45.3964
L130.2232 45.3964
" />
<path d="M130.2232 42.3500
L127.4768 42.3500
" />
<path d="M130.5732 42.7000
L130.5732 45.0464
" />
<path d="M127.4768 42.3500 A0.2500 0.2500 0.0 0 0 127.1268 42.7000" />
<path d="M127.1268 45.0464 A0.2500 0.2500 0.0 0 0 127.4768 45.3964" />
<path d="M130.5732 42.7000 A0.2500 0.2500 0.0 0 0 130.2232 42.3500" />
<path d="M130.2232 45.3964 A0.2500 0.2500 0.0 0 0 130.5732 45.0464" />
<path d="M260.4818 17.4732
L260.4818 15.1268
" />
<path d="M260.8318 17.8232
L263.5782 17.8232
" />
<path d="M263.5782 14.7768
L260.8318 14.7768
" />
<path d="M263.9282 17.4732
L263.9282 15.1268
" />
<path d="M260.8318 14.7768 A0.2500 0.2500 0.0 0 0 260.4818 15.1268" />
<path d="M260.4818 17.4732 A0.2500 0.2500 0.0 0 0 260.8318 17.8232" />
<path d="M263.9282 15.1268 A0.2500 0.2500 0.0 0 0 263.5782 14.7768" />
<path d="M263.5782 17.8232 A0.2500 0.2500 0.0 0 0 263.9282 17.4732" />
<path d="M203.3268 45.0464
L203.3268 42.7000
" />
<path d="M203.6768 45.3964
L206.4232 45.3964
" />
<path d="M206.4232 42.3500
L203.6768 42.3500
" />
<path d="M206.7732 42.7000
L206.7732 45.0464
" />
<path d="M203.6768 42.3500 A0.2500 0.2500 0.0 0 0 203.3268 42.7000" />
<path d="M203.3268 45.0464 A0.2500 0.2500 0.0 0 0 203.6768 45.3964" />
<path d="M206.7732 42.7000 A0.2500 0.2500 0.0 0 0 206.4232 42.3500" />
<path d="M206.4232 45.3964 A0.2500 0.2500 0.0 0 0 206.7732 45.0464" />
<path d="M170.0018 102.1982
L170.0018 99.8518
" />
<path d="M170.3518 102.5482
L173.0982 102.5482
" />
<path d="M173.0982 99.5018
L170.3518 99.5018
" />
<path d="M173.4482 102.1982
L173.4482 99.8518
" />
<path d="M170.3518 99.5018 A0.2500 0.2500 0.0 0 0 170.0018 99.8518" />
<path d="M170.0018 102.1982 A0.2500 0.2500 0.0 0 0 170.3518 102.5482" />
<path d="M173.4482 99.8518 A0.2500 0.2500 0.0 0 0 173.0982 99.5018" />
<path d="M173.0982 102.5482 A0.2500 0.2500 0.0 0 0 173.4482 102.1982" />
<path d="M208.1018 102.1982
L208.1018 99.8518
" />
<path d="M208.4518 102.5482
L211.1982 102.5482
" />
<path d="M211.1982 99.5018
L208.4518 99.5018
" />
<path d="M211.5482 102.1982
L211.5482 99.8518
" />
<path d="M208.4518 99.5018 A0.2500 0.2500 0.0 0 0 208.1018 99.8518" />
<path d="M208.1018 102.1982 A0.2500 0.2500 0.0 0 0 208.4518 102.5482" />
<path d="M211.5482 99.8518 A0.2500 0.2500 0.0 0 0 211.1982 99.5018" />
<path d="M211.1982 102.5482 A0.2500 0.2500 0.0 0 0 211.5482 102.1982" />
<path d="M69.9768 45.0464
L69.9768 42.7000
" />
<path d="M70.3268 45.3964
L73.0732 45.3964
" />
<path d="M73.0732 42.3500
L70.3268 42.3500
" />
<path d="M73.4232 42.7000
L73.4232 45.0464
" />
<path d="M70.3268 42.3500 A0.2500 0.2500 0.0 0 0 69.9768 42.7000" />
<path d="M69.9768 45.0464 A0.2500 0.2500 0.0 0 0 70.3268 45.3964" />
<path d="M73.4232 42.7000 A0.2500 0.2500 0.0 0 0 73.0732 42.3500" />
<path d="M73.0732 45.3964 A0.2500 0.2500 0.0 0 0 73.4232 45.0464" />
<path d="M217.6268 83.1464
L217.6268 80.8000
" />
<path d="M217.9768 83.4964
L220.7232 83.4964
" />
<path d="M220.7232 80.4500
L217.9768 80.4500
" />
<path d="M221.0732 80.8000
L221.0732 83.1464
" />
<path d="M217.9768 80.4500 A0.2500 0.2500 0.0 0 0 217.6268 80.8000" />
<path d="M217.6268 83.1464 A0.2500 0.2500 0.0 0 0 217.9768 83.4964" />
<path d="M221.0732 80.8000 A0.2500 0.2500 0.0 0 0 220.7232 80.4500" />
<path d="M220.7232 83.4964 A0.2500 0.2500 0.0 0 0 221.0732 83.1464" />
<path d="M174.7568 17.4732
L174.7568 15.1268
" />
<path d="M175.1068 17.8232
L177.8532 17.8232
" />
<path d="M177.8532 14.7768
L175.1068 14.7768
" />
<path d="M178.2032 17.4732
L178.2032 15.1268
" />
<path d="M175.1068 14.7768 A0.2500 0.2500 0.0 0 0 174.7568 15.1268" />
<path d="M174.7568 17.4732 A0.2500 0.2500 0.0 0 0 175.1068 17.8232" />
<path d="M178.2032 15.1268 A0.2500 0.2500 0.0 0 0 177.8532 14.7768" />
<path d="M177.8532 17.8232 A0.2500 0.2500 0.0 0 0 178.2032 17.4732" />
<path d="M136.6518 64.0982
L136.6518 61.7518
" />
<path d="M137.0018 64.4482
L139.7482 64.4482
" />
<path d="M139.7482 61.4018
L137.0018 61.4018
" />
<path d="M140.0982 64.0982
L140.0982 61.7518
" />
<path d="M137.0018 61.4018 A0.2500 0.2500 0.0 0 0 136.6518 61.7518" />
<path d="M136.6518 64.0982 A0.2500 0.2500 0.0 0 0 137.0018 64.4482" />
<path d="M140.0982 61.7518 A0.2500 0.2500 0.0 0 0 139.7482 61.4018" />
<path d="M139.7482 64.4482 A0.2500 0.2500 0.0 0 0 140.0982 64.0982" />
<path d="M55.7018 102.1982
L55.7018 99.8518
" />
<path d="M56.0518 102.5482
L58.7982 102.5482
" />
<path d="M58.7982 99.5018
L56.0518 99.5018
" />
<path d="M59.1482 102.1982
L59.1482 99.8518
" />
<path d="M56.0518 99.5018 A0.2500 0.2500 0.0 0 0 55.7018 99.8518" />
<path d="M55.7018 102.1982 A0.2500 0.2500 0.0 0 0 56.0518 102.5482" />
<path d="M59.1482 99.8518 A0.2500 0.2500 0.0 0 0 58.7982 99.5018" />
<path d="M58.7982 102.5482 A0.2500 0.2500 0.0 0 0 59.1482 102.1982" />
<path d="M12.8268 45.0464
L12.8268 42.7000
" />
<path d="M13.1768 45.3964
L15.9232 45.3964
" />
<path d="M15.9232 42.3500
L13.1768 42.3500
" />
<path d="M16.2732 42.7000
L16.2732 45.0464
" />
<path d="M13.1768 42.3500 A0.2500 0.2500 0.0 0 0 12.8268 42.7000" />
<path d="M12.8268 45.0464 A0.2500 0.2500 0.0 0 0 13.1768 45.3964" />
<path d="M16.2732 42.7000 A0.2500 0.2500 0.0 0 0 15.9232 42.3500" />
<path d="M15.9232 45.3964 A0.2500 0.2500 0.0 0 0 16.2732 45.0464" />
<path d="M46.1768 83.1464
L46.1768 80.8000
" />
<path d="M46.5268 83.4964
L49.2732 83.4964
" />
<path d="M49.2732 80.4500
L46.5268 80.4500
" />
<path d="M49.6232 80.8000
L49.6232 83.1464
" />
<path d="M46.5268 80.4500 A0.2500 0.2500 0.0 0 0 46.1768 80.8000" />
<path d="M46.1768 83.1464 A0.2500 0.2500 0.0 0 0 46.5268 83.4964" />
<path d="M49.6232 80.8000 A0.2500 0.2500 0.0 0 0 49.2732 80.4500" />
<path d="M49.2732 83.4964 A0.2500 0.2500 0.0 0 0 49.6232 83.1464" />
<path d="M236.6768 83.1464
L236.6768 80.8000
" />
<path d="M237.0268 83.4964
L239.7732 83.4964
" />
<path d="M239.7732 80.4500
L237.0268 80.4500
" />
<path d="M240.1232 80.8000
L240.1232 83.1464
" />
<path d="M237.0268 80.4500 A0.2500 0.2500 0.0 0 0 236.6768 80.8000" />
<path d="M236.6768 83.1464 A0.2500 0.2500 0.0 0 0 237.0268 83.4964" />
<path d="M240.1232 80.8000 A0.2500 0.2500 0.0 0 0 239.7732 80.4500" />
<path d="M239.7732 83.4964 A0.2500 0.2500 0.0 0 0 240.1232 83.1464" />
<path d="M36.6568 102.1982
L36.6568 99.8518
" />
<path d="M37.0068 102.5482
L39.7532 102.5482
" />
<path d="M39.7532 99.5018
L37.0068 99.5018
" />
<path d="M40.1032 102.1982
L40.1032 99.8518
" />
<path d="M37.0068 99.5018 A0.2500 0.2500 0.0 0 0 36.6568 99.8518" />
<path d="M36.6568 102.1982 A0.2500 0.2500 0.0 0 0 37.0068 102.5482" />
<path d="M40.1032 99.8518 A0.2500 0.2500 0.0 0 0 39.7532 99.5018" />
<path d="M39.7532 102.5482 A0.2500 0.2500 0.0 0 0 40.1032 102.1982" />
<path d="M262.8768 102.1982
L262.8768 99.8518
" />
<path d="M263.2268 102.5482
L265.9732 102.5482
" />
<path d="M265.9732 99.5018
L263.2268 99.5018
" />
<path d="M266.3232 102.1982
L266.3232 99.8518
" />
<path d="M263.2268 99.5018 A0.2500 0.2500 0.0 0 0 262.8768 99.8518" />
<path d="M262.8768 102.1982 A0.2500 0.2500 0.0 0 0 263.2268 102.5482" />
<path d="M266.3232 99.8518 A0.2500 0.2500 0.0 0 0 265.9732 99.5018" />
<path d="M265.9732 102.5482 A0.2500 0.2500 0.0 0 0 266.3232 102.1982" />
<path d="M189.0518 102.1982
L189.0518 99.8518
" />
<path d="M189.4018 102.5482
L192.1482 102.5482
" />
<path d="M192.1482 99.5018
L189.4018 99.5018
" />
<path d="M192.4982 102.1982
L192.4982 99.8518
" />
<path d="M189.4018 99.5018 A0.2500 0.2500 0.0 0 0 189.0518 99.8518" />
<path d="M189.0518 102.1982 A0.2500 0.2500 0.0 0 0 189.4018 102.5482" />
<path d="M192.4982 99.8518 A0.2500 0.2500 0.0 0 0 192.1482 99.5018" />
<path d="M192.1482 102.5482 A0.2500 0.2500 0.0 0 0 192.4982 102.1982" />
<path d="M60.4518 64.0982
L60.4518 61.7518
" />
<path d="M60.8018 64.4482
L63.5482 64.4482
" />
<path d="M63.5482 61.4018
L60.8018 61.4018
" />
<path d="M63.8982 64.0982
L63.8982 61.7518
" />
<path d="M60.8018 61.4018 A0.2500 0.2500 0.0 0 0 60.4518 61.7518" />
<path d="M60.4518 64.0982 A0.2500 0.2500 0.0 0 0 60.8018 64.4482" />
<path d="M63.8982 61.7518 A0.2500 0.2500 0.0 0 0 63.5482 61.4018" />
<path d="M63.5482 64.4482 A0.2500 0.2500 0.0 0 0 63.8982 64.0982" />
<path d="M50.9268 45.0464
L50.9268 42.7000
" />
<path d="M51.2768 45.3964
L54.0232 45.3964
" />
<path d="M54.0232 42.3500
L51.2768 42.3500
" />
<path d="M54.3732 42.7000
L54.3732 45.0464
" />
<path d="M51.2768 42.3500 A0.2500 0.2500 0.0 0 0 50.9268 42.7000" />
<path d="M50.9268 45.0464 A0.2500 0.2500 0.0 0 0 51.2768 45.3964" />
<path d="M54.3732 42.7000 A0.2500 0.2500 0.0 0 0 54.0232 42.3500" />
<path d="M54.0232 45.3964 A0.2500 0.2500 0.0 0 0 54.3732 45.0464" />
<path d="M122.3768 83.1464
L122.3768 80.8000
" />
<path d="M122.7268 83.4964
L125.4732 83.4964
" />
<path d="M125.4732 80.4500
L122.7268 80.4500
" />
<path d="M125.8232 80.8000
L125.8232 83.1464
" />
<path d="M122.7268 80.4500 A0.2500 0.2500 0.0 0 0 122.3768 80.8000" />
<path d="M122.3768 83.1464 A0.2500 0.2500 0.0 0 0 122.7268 83.4964" />
<path d="M125.8232 80.8000 A0.2500 0.2500 0.0 0 0 125.4732 80.4500" />
<path d="M125.4732 83.4964 A0.2500 0.2500 0.0 0 0 125.8232 83.1464" />
<path d="M326.6268 102.1982
L326.6268 99.8518
" />
<path d="M326.9768 102.5482
L329.7232 102.5482
" />
<path d="M329.7232 99.5018
L326.9768 99.5018
" />
<path d="M330.0732 102.1982
L330.0732 99.8518
" />
<path d="M326.9768 99.5018 A0.2500 0.2500 0.0 0 0 326.6268 99.8518" />
<path d="M326.6268 102.1982 A0.2500 0.2500 0.0 0 0 326.9768 102.5482" />
<path d="M330.0732 99.8518 A0.2500 0.2500 0.0 0 0 329.7232 99.5018" />
<path d="M329.7232 102.5482 A0.2500 0.2500 0.0 0 0 330.0732 102.1982" />
<path d="M15.2218 102.1982
L15.2218 99.8518
" />
<path d="M15.5718 102.5482
L18.3182 102.5482
" />
<path d="M18.3182 99.5018
L15.5718 99.5018
" />
<path d="M18.6682 102.1982
L18.6682 99.8518
" />
<path d="M15.5718 99.5018 A0.2500 0.2500 0.0 0 0 15.2218 99.8518" />
<path d="M15.2218 102.1982 A0.2500 0.2500 0.0 0 0 15.5718 102.5482" />
<path d="M18.6682 99.8518 A0.2500 0.2500 0.0 0 0 18.3182 99.5018" />
<path d="M18.3182 102.5482 A0.2500 0.2500 0.0 0 0 18.6682 102.1982" />
<path d="M155.7018 64.0982
L155.7018 61.7518
" />
<path d="M156.0518 64.4482
L158.7982 64.4482
" />
<path d="M158.7982 61.4018
L156.0518 61.4018
" />
<path d="M159.1482 64.0982
L159.1482 61.7518
" />
<path d="M156.0518 61.4018 A0.2500 0.2500 0.0 0 0 155.7018 61.7518" />
<path d="M155.7018 64.0982 A0.2500 0.2500 0.0 0 0 156.0518 64.4482" />
<path d="M159.1482 61.7518 A0.2500 0.2500 0.0 0 0 158.7982 61.4018" />
<path d="M158.7982 64.4482 A0.2500 0.2500 0.0 0 0 159.1482 64.0982" />
<path d="M62.8318 121.2464
L62.8318 118.9000
" />
<path d="M63.1818 121.5964
L65.9282 121.5964
" />
<path d="M65.9282 118.5500
L63.1818 118.5500
" />
<path d="M66.2782 118.9000
L66.2782 121.2464
" />
<path d="M63.1818 118.5500 A0.2500 0.2500 0.0 0 0 62.8318 118.9000" />
<path d="M62.8318 121.2464 A0.2500 0.2500 0.0 0 0 63.1818 121.5964" />
<path d="M66.2782 118.9000 A0.2500 0.2500 0.0 0 0 65.9282 118.5500" />
<path d="M65.9282 121.5964 A0.2500 0.2500 0.0 0 0 66.2782 121.2464" />
<path d="M205.7268 121.2464
L205.7268 118.9000
" />
<path d="M206.0768 121.5964
L208.8232 121.5964
" />
<path d="M208.8232 118.5500
L206.0768 118.5500
" />
<path d="M209.1732 118.9000
L209.1732 121.2464
" />
<path d="M206.0768 118.5500 A0.2500 0.2500 0.0 0 0 205.7268 118.9000" />
<path d="M205.7268 121.2464 A0.2500 0.2500 0.0 0 0 206.0768 121.5964" />
<path d="M209.1732 118.9000 A0.2500 0.2500 0.0 0 0 208.8232 118.5500" />
<path d="M208.8232 121.5964 A0.2500 0.2500 0.0 0 0 209.1732 121.2464" />
<path d="M198.5768 83.1464
L198.5768 80.8000
" />
<path d="M198.9268 83.4964
L201.6732 83.4964
" />
<path d="M201.6732 80.4500
L198.9268 80.4500
" />
<path d="M202.0232 80.8000
L202.0232 83.1464
" />
<path d="M198.9268 80.4500 A0.2500 0.2500 0.0 0 0 198.5768 80.8000" />
<path d="M198.5768 83.1464 A0.2500 0.2500 0.0 0 0 198.9268 83.4964" />
<path d="M202.0232 80.8000 A0.2500 0.2500 0.0 0 0 201.6732 80.4500" />
<path d="M201.6732 83.4964 A0.2500 0.2500 0.0 0 0 202.0232 83.1464" />
<path d="M93.8018 102.1982
L93.8018 99.8518
" />
<path d="M94.1518 102.5482
L96.8982 102.5482
" />
<path d="M96.8982 99.5018
L94.1518 99.5018
" />
<path d="M97.2482 102.1982
L97.2482 99.8518
" />
<path d="M94.1518 99.5018 A0.2500 0.2500 0.0 0 0 93.8018 99.8518" />
<path d="M93.8018 102.1982 A0.2500 0.2500 0.0 0 0 94.1518 102.5482" />
<path d="M97.2482 99.8518 A0.2500 0.2500 0.0 0 0 96.8982 99.5018" />
<path d="M96.8982 102.5482 A0.2500 0.2500 0.0 0 0 97.2482 102.1982" />
<path d="M89.0268 45.0464
L89.0268 42.7000
" />
<path d="M89.3768 45.3964
L92.1232 45.3964
" />
<path d="M92.1232 42.3500
L89.3768 42.3500
" />
<path d="M92.4732 42.7000
L92.4732 45.0464
" />
<path d="M89.3768 42.3500 A0.2500 0.2500 0.0 0 0 89.0268 42.7000" />
<path d="M89.0268 45.0464 A0.2500 0.2500 0.0 0 0 89.3768 45.3964" />
<path d="M92.4732 42.7000 A0.2500 0.2500 0.0 0 0 92.1232 42.3500" />
<path d="M92.1232 45.3964 A0.2500 0.2500 0.0 0 0 92.4732 45.0464" />
<path d="M19.9768 83.1464
L19.9768 80.8000
" />
<path d="M20.3268 83.4964
L23.0732 83.4964
" />
<path d="M23.0732 80.4500
L20.3268 80.4500
" />
<path d="M23.4232 80.8000
L23.4232 83.1464
" />
<path d="M20.3268 80.4500 A0.2500 0.2500 0.0 0 0 19.9768 80.8000" />
<path d="M19.9768 83.1464 A0.2500 0.2500 0.0 0 0 20.3268 83.4964" />
<path d="M23.4232 80.8000 A0.2500 0.2500 0.0 0 0 23.0732 80.4500" />
<path d="M23.0732 83.4964 A0.2500 0.2500 0.0 0 0 23.4232 83.1464" />
<path d="M65.2318 83.1464
L65.2318 80.8000
" />
<path d="M65.5818 83.4964
L68.3282 83.4964
" />
<path d="M68.3282 80.4500
L65.5818 80.4500
" />
<path d="M68.6782 80.8000
L68.6782 83.1464
" />
<path d="M65.5818 80.4500 A0.2500 0.2500 0.0 0 0 65.2318 80.8000" />
<path d="M65.2318 83.1464 A0.2500 0.2500 0.0 0 0 65.5818 83.4964" />
<path d="M68.6782 80.8000 A0.2500 0.2500 0.0 0 0 68.3282 80.4500" />
<path d="M68.3282 83.4964 A0.2500 0.2500 0.0 0 0 68.6782 83.1464" />
<path d="M222.3768 45.0464
L222.3768 42.7000
" />
<path d="M222.7268 45.3964
L225.4732 45.3964
" />
<path d="M225.4732 42.3500
L222.7268 42.3500
" />
<path d="M225.8232 42.7000
L225.8232 45.0464
" />
<path d="M222.7268 42.3500 A0.2500 0.2500 0.0 0 0 222.3768 42.7000" />
<path d="M222.3768 45.0464 A0.2500 0.2500 0.0 0 0 222.7268 45.3964" />
<path d="M225.8232 42.7000 A0.2500 0.2500 0.0 0 0 225.4732 42.3500" />
<path d="M225.4732 45.3964 A0.2500 0.2500 0.0 0 0 225.8232 45.0464" />
<path d="M307.5518 64.0982
L307.5518 61.7518
" />
<path d="M307.9018 64.4482
L310.6482 64.4482
" />
<path d="M310.6482 61.4018
L307.9018 61.4018
" />
<path d="M310.9982 64.0982
L310.9982 61.7518
" />
<path d="M307.9018 61.4018 A0.2500 0.2500 0.0 0 0 307.5518 61.7518" />
<path d="M307.5518 64.0982 A0.2500 0.2500 0.0 0 0 307.9018 64.4482" />
<path d="M310.9982 61.7518 A0.2500 0.2500 0.0 0 0 310.6482 61.4018" />
<path d="M310.6482 64.4482 A0.2500 0.2500 0.0 0 0 310.9982 64.0982" />
<path d="M165.2268 45.0464
L165.2268 42.7000
" />
<path d="M165.5768 45.3964
L168.3232 45.3964
" />
<path d="M168.3232 42.3500
L165.5768 42.3500
" />
<path d="M168.6732 42.7000
L168.6732 45.0464
" />
<path d="M165.5768 42.3500 A0.2500 0.2500 0.0 0 0 165.2268 42.7000" />
<path d="M165.2268 45.0464 A0.2500 0.2500 0.0 0 0 165.5768 45.3964" />
<path d="M168.6732 42.7000 A0.2500 0.2500 0.0 0 0 168.3232 42.3500" />
<path d="M168.3232 45.3964 A0.2500 0.2500 0.0 0 0 168.6732 45.0464" />
<path d="M193.8068 17.4682
L193.8068 15.1218
" />
<path d="M194.1568 17.8182
L196.9032 17.8182
" />
<path d="M196.9032 14.7718
L194.1568 14.7718
" />
<path d="M197.2532 17.4682
L197.2532 15.1218
" />
<path d="M194.1568 14.7718 A0.2500 0.2500 0.0 0 0 193.8068 15.1218" />
<path d="M193.8068 17.4682 A0.2500 0.2500 0.0 0 0 194.1568 17.8182" />
<path d="M197.2532 15.1218 A0.2500 0.2500 0.0 0 0 196.9032 14.7718" />
<path d="M196.9032 17.8182 A0.2500 0.2500 0.0 0 0 197.2532 17.4682" />
<path d="M160.4768 83.1464
L160.4768 80.8000
" />
<path d="M160.8268 83.4964
L163.5732 83.4964
" />
<path d="M163.5732 80.4500
L160.8268 80.4500
" />
<path d="M163.9232 80.8000
L163.9232 83.1464
" />
<path d="M160.8268 80.4500 A0.2500 0.2500 0.0 0 0 160.4768 80.8000" />
<path d="M160.4768 83.1464 A0.2500 0.2500 0.0 0 0 160.8268 83.4964" />
<path d="M163.9232 80.8000 A0.2500 0.2500 0.0 0 0 163.5732 80.4500" />
<path d="M163.5732 83.4964 A0.2500 0.2500 0.0 0 0 163.9232 83.1464" />
<path d="M141.4268 83.1464
L141.4268 80.8000
" />
<path d="M141.7768 83.4964
L144.5232 83.4964
" />
<path d="M144.5232 80.4500
L141.7768 80.4500
" />
<path d="M144.8732 80.8000
L144.8732 83.1464
" />
<path d="M141.7768 80.4500 A0.2500 0.2500 0.0 0 0 141.4268 80.8000" />
<path d="M141.4268 83.1464 A0.2500 0.2500 0.0 0 0 141.7768 83.4964" />
<path d="M144.8732 80.8000 A0.2500 0.2500 0.0 0 0 144.5232 80.4500" />
<path d="M144.5232 83.4964 A0.2500 0.2500 0.0 0 0 144.8732 83.1464" />
<path d="M179.5268 83.1464
L179.5268 80.8000
" />
<path d="M179.8768 83.4964
L182.6232 83.4964
" />
<path d="M182.6232 80.4500
L179.8768 80.4500
" />
<path d="M182.9732 80.8000
L182.9732 83.1464
" />
<path d="M179.8768 80.4500 A0.2500 0.2500 0.0 0 0 179.5268 80.8000" />
<path d="M179.5268 83.1464 A0.2500 0.2500 0.0 0 0 179.8768 83.4964" />
<path d="M182.9732 80.8000 A0.2500 0.2500 0.0 0 0 182.6232 80.4500" />
<path d="M182.6232 83.4964 A0.2500 0.2500 0.0 0 0 182.9732 83.1464" />
<path d="M41.4018 64.0982
L41.4018 61.7518
" />
<path d="M41.7518 64.4482
L44.4982 64.4482
" />
<path d="M44.4982 61.4018
L41.7518 61.4018
" />
<path d="M44.8482 64.0982
L44.8482 61.7518
" />
<path d="M41.7518 61.4018 A0.2500 0.2500 0.0 0 0 41.4018 61.7518" />
<path d="M41.4018 64.0982 A0.2500 0.2500 0.0 0 0 41.7518 64.4482" />
<path d="M44.8482 61.7518 A0.2500 0.2500 0.0 0 0 44.4982 61.4018" />
<path d="M44.4982 64.4482 A0.2500 0.2500 0.0 0 0 44.8482 64.0982" />
<path d="M184.2768 45.0464
L184.2768 42.7000
" />
<path d="M184.6268 45.3964
L187.3732 45.3964
" />
<path d="M187.3732 42.3500
L184.6268 42.3500
" />
<path d="M187.7232 42.7000
L187.7232 45.0464
" />
<path d="M184.6268 42.3500 A0.2500 0.2500 0.0 0 0 184.2768 42.7000" />
<path d="M184.2768 45.0464 A0.2500 0.2500 0.0 0 0 184.6268 45.3964" />
<path d="M187.7232 42.7000 A0.2500 0.2500 0.0 0 0 187.3732 42.3500" />
<path d="M187.3732 45.3964 A0.2500 0.2500 0.0 0 0 187.7232 45.0464" />
<path d="M250.9518 64.0982
L250.9518 61.7518
" />
<path d="M251.3018 64.4482
L254.0482 64.4482
" />
<path d="M254.0482 61.4018
L251.3018 61.4018
" />
<path d="M254.3982 64.0982
L254.3982 61.7518
" />
<path d="M251.3018 61.4018 A0.2500 0.2500 0.0 0 0 250.9518 61.7518" />
<path d="M250.9518 64.0982 A0.2500 0.2500 0.0 0 0 251.3018 64.4482" />
<path d="M254.3982 61.7518 A0.2500 0.2500 0.0 0 0 254.0482 61.4018" />
<path d="M254.0482 64.4482 A0.2500 0.2500 0.0 0 0 254.3982 64.0982" />
<path d="M279.5318 17.4732
L279.5318 15.1268
" />
<path d="M279.8818 17.8232
L282.6282 17.8232
" />
<path d="M282.6282 14.7768
L279.8818 14.7768
" />
<path d="M282.9782 17.4732
L282.9782 15.1268
" />
<path d="M279.8818 14.7768 A0.2500 0.2500 0.0 0 0 279.5318 15.1268" />
<path d="M279.5318 17.4732 A0.2500 0.2500 0.0 0 0 279.8818 17.8232" />
<path d="M282.9782 15.1268 A0.2500 0.2500 0.0 0 0 282.6282 14.7768" />
<path d="M282.6282 17.8232 A0.2500 0.2500 0.0 0 0 282.9782 17.4732" />
<path d="M174.7518 64.0982
L174.7518 61.7518
" />
<path d="M175.1018 64.4482
L177.8482 64.4482
" />
<path d="M177.8482 61.4018
L175.1018 61.4018
" />
<path d="M178.1982 64.0982
L178.1982 61.7518
" />
<path d="M175.1018 61.4018 A0.2500 0.2500 0.0 0 0 174.7518 61.7518" />
<path d="M174.7518 64.0982 A0.2500 0.2500 0.0 0 0 175.1018 64.4482" />
<path d="M178.1982 61.7518 A0.2500 0.2500 0.0 0 0 177.8482 61.4018" />
<path d="M177.8482 64.4482 A0.2500 0.2500 0.0 0 0 178.1982 64.0982" />
<path d="M345.6568 45.0464
L345.6568 42.7000
" />
<path d="M346.0068 45.3964
L348.7532 45.3964
" />
<path d="M348.7532 42.3500
L346.0068 42.3500
" />
<path d="M349.1032 42.7000
L349.1032 45.0464
" />
<path d="M346.0068 42.3500 A0.2500 0.2500 0.0 0 0 345.6568 42.7000" />
<path d="M345.6568 45.0464 A0.2500 0.2500 0.0 0 0 346.0068 45.3964" />
<path d="M349.1032 42.7000 A0.2500 0.2500 0.0 0 0 348.7532 42.3500" />
<path d="M348.7532 45.3964 A0.2500 0.2500 0.0 0 0 349.1032 45.0464" />
<path d="M146.1768 45.0464
L146.1768 42.7000
" />
<path d="M146.5268 45.3964
L149.2732 45.3964
" />
<path d="M149.2732 42.3500
L146.5268 42.3500
" />
<path d="M149.6232 42.7000
L149.6232 45.0464
" />
<path d="M146.5268 42.3500 A0.2500 0.2500 0.0 0 0 146.1768 42.7000" />
<path d="M146.1768 45.0464 A0.2500 0.2500 0.0 0 0 146.5268 45.3964" />
<path d="M149.6232 42.7000 A0.2500 0.2500 0.0 0 0 149.2732 42.3500" />
<path d="M149.2732 45.3964 A0.2500 0.2500 0.0 0 0 149.6232 45.0464" />
<path d="M84.2768 83.1464
L84.2768 80.8000
" />
<path d="M84.6268 83.4964
L87.3732 83.4964
" />
<path d="M87.3732 80.4500
L84.6268 80.4500
" />
<path d="M87.7232 80.8000
L87.7232 83.1464
" />
<path d="M84.6268 80.4500 A0.2500 0.2500 0.0 0 0 84.2768 80.8000" />
<path d="M84.2768 83.1464 A0.2500 0.2500 0.0 0 0 84.6268 83.4964" />
<path d="M87.7232 80.8000 A0.2500 0.2500 0.0 0 0 87.3732 80.4500" />
<path d="M87.3732 83.4964 A0.2500 0.2500 0.0 0 0 87.7232 83.1464" />
<path d="M112.8518 102.1982
L112.8518 99.8518
" />
<path d="M113.2018 102.5482
L115.9482 102.5482
" />
<path d="M115.9482 99.5018
L113.2018 99.5018
" />
<path d="M116.2982 102.1982
L116.2982 99.8518
" />
<path d="M113.2018 99.5018 A0.2500 0.2500 0.0 0 0 112.8518 99.8518" />
<path d="M112.8518 102.1982 A0.2500 0.2500 0.0 0 0 113.2018 102.5482" />
<path d="M116.2982 99.8518 A0.2500 0.2500 0.0 0 0 115.9482 99.5018" />
<path d="M115.9482 102.5482 A0.2500 0.2500 0.0 0 0 116.2982 102.1982" />
</g> 
</svg>
